<svg id="Muster" xmlns="http://www.w3.org/2000/svg" xmlns:xlink="http://www.w3.org/1999/xlink" viewBox="0 0 1650 650.64"><defs><style>.cls-1,.cls-10,.cls-12,.cls-3,.cls-4,.cls-9{fill:none;}.cls-2{clip-path:url(#clip-path);}.cls-10,.cls-12,.cls-3,.cls-4,.cls-9{stroke:#12e7eb;stroke-linecap:round;stroke-linejoin:round;}.cls-14,.cls-3,.cls-5{opacity:0.5;}.cls-14,.cls-6{fill:#12e7eb;}.cls-10,.cls-7{opacity:0.16;}.cls-12,.cls-8{opacity:0.63;}.cls-11,.cls-9{opacity:0.68;}.cls-13{opacity:0.17;}</style><clipPath id="clip-path"><rect id="SVGID" class="cls-1" width="1160.11" height="486.08"/></clipPath></defs><g class="cls-2"><line class="cls-3" x1="714.03" y1="57.3" x2="787.27" y2="-0.08"/><line class="cls-4" x1="787.27" y1="-0.08" x2="648.29" y2="35.69"/><g class="cls-5"><path class="cls-6" d="M782.9,2.08l-69.07,54.1-62-20.38,131-33.72m4.37-2.16-139,35.77L714,57.3,787.27-.08Z"/></g><g class="cls-7"><line class="cls-4" x1="648.29" y1="35.69" x2="588.51" y2="-0.08"/><path class="cls-6" d="M588.91,1.32l57.52,34.42L529.32,115.15,588.91,1.32m-.4-1.4L526.59,118.21l121.7-82.52L588.51-.08Z"/><line class="cls-4" x1="588.51" y1="-0.08" x2="368.17" y2="146.9"/><polyline class="cls-4" points="526.59 118.21 368.17 146.9 588.51 -0.08"/></g><g class="cls-8"><line class="cls-4" x1="368.17" y1="146.9" x2="389.75" y2="-0.08"/><path class="cls-6" d="M390.58,1.19,491,29.1,369.58,144.19l21-143m-.83-1.27-21.58,147L492.94,28.61,389.75-.08Z"/><line class="cls-4" x1="389.75" y1="-0.08" x2="279.29" y2="52.67"/><path class="cls-6" d="M389.85,1l97.86,27.21L285.08,51,389.85,1m-.1-1.06L279.29,52.67,492.94,28.61,389.75-.08Z"/><line class="cls-4" x1="279.29" y1="52.67" x2="190.99" y2="-0.08"/><path class="cls-6" d="M191.61,1.45l86.08,51.43L137.23,197.35,191.61,1.45M191-.08,135.23,200.85,279.29,52.67,191-.08Z"/><line class="cls-4" x1="190.99" y1="-0.08" x2="66.42" y2="20.15"/><path class="cls-6" d="M189.61,1.16,135.08,197.65,67.79,20.94,189.61,1.16M191-.08,66.42,20.15l68.81,180.7L191-.08Z"/></g><line class="cls-4" x1="66.42" y1="20.15" x2="-7.77" y2="-0.08"/><polyline class="cls-4" points="66.42 20.15 -7.77 114.67 -7.77 -0.08"/><line class="cls-3" x1="714.03" y1="57.3" x2="714.03" y2="57.3"/><g class="cls-5"><path class="cls-6" d="M648.74,36.89l62,20.37L620,85l28.78-48.11m-.45-1.2-30.52,51L714,57.3,648.29,35.69Z"/><path class="cls-6" d="M645.11,39.05l-28,46.84L533.41,114.8l111.7-75.75m3.18-3.36-121.7,82.52h0l91.18-31.5,30.52-51Z"/><line class="cls-4" x1="526.59" y1="118.21" x2="617.77" y2="86.71"/></g><line class="cls-9" x1="489.13" y1="172.05" x2="526.59" y2="118.21"/><g class="cls-7"><path class="cls-6" d="M524.39,119.63l-35.7,51.31L373.41,147l151-27.34m2.2-1.42L368.17,146.9l121,25.15,37.46-53.84Z"/></g><line class="cls-9" x1="453.81" y1="229.43" x2="489.13" y2="172.05"/><polyline class="cls-10" points="368.17 146.9 489.13 172.05 492.94 28.61 492.94 28.61"/><g class="cls-11"><path class="cls-6" d="M491.82,33l-3.67,138.5L392.2,226.86,491.82,33m1.12-4.36L389.75,229.43l99.38-57.38,3.81-143.44Z"/></g><g class="cls-11"><path class="cls-6" d="M486.21,174.89l-33,53.54H393.49l92.72-53.54m2.92-2.84-99.38,57.38h64.06l35.32-57.38Z"/></g><g class="cls-7"><path class="cls-6" d="M490.18,31.79,389.34,228,292.22,172l198-140.18m2.76-3.18L290.37,172.05l99.38,57.38L492.94,28.61Z"/></g><g class="cls-8"><path class="cls-6" d="M489.19,30l-198,140.19L280.38,53.55,489.19,30m3.75-1.43L279.29,52.67l11.08,119.38L492.94,28.61Z"/></g><g class="cls-7"><path class="cls-6" d="M291.73,174l95.51,55.14L305.57,253.3,291.73,174m-1.36-1.94,14.41,82.53,85-25.15-99.38-57.38Z"/></g><polyline class="cls-12" points="290.37 172.05 135.22 200.85 135.22 200.85 279.29 52.67"/><g class="cls-13"><path class="cls-6" d="M284.83,174.1,191,228.29l-52.67-27,146.54-27.2m5.54-2-155.14,28.8L191,229.43l99.38-57.38Z"/></g><g class="cls-13"><path class="cls-6" d="M289.63,173.63l13.91,79.65L193.72,229l95.91-55.38m.74-1.58L191,229.43l113.79,25.15-14.41-82.53Z"/></g><g class="cls-13"><path class="cls-6" d="M145.41,58.91l44.05,168.61-53.19-27.26,9.14-141.35m-.6-6.24-9.58,148.18L191,229.43,144.81,52.67Z"/></g><g class="cls-13"><path class="cls-6" d="M68.18,22l75.59,31.36L134.52,196.2,68.18,22m-1.76-1.81,68.81,180.7,9.58-148.18L66.42,20.15Z"/></g><g class="cls-13"><path class="cls-6" d="M144.77,56.46l45,172.08L93,237.79,144.77,56.46m0-3.79L91.61,238.93l99.38-9.5L144.81,52.67Z"/></g><path class="cls-6" d="M66.74,21.36l75.44,31.3L-4.66,112.33l71.4-91m-.32-1.21L-7.77,114.67h0l152.58-62L66.42,20.15Z"/><polyline class="cls-4" points="144.81 52.67 -7.77 229.43 -7.77 114.67"/><g class="cls-13"><path class="cls-6" d="M142.61,56.76,90.88,237.85l-96.63-9.23L142.61,56.76m2.2-4.09L-7.77,229.43l99.38,9.5,53.2-186.26Z"/></g><g class="cls-13"><line class="cls-4" x1="190.99" y1="229.43" x2="304.78" y2="254.58"/><polyline class="cls-4" points="91.61 238.93 91.61 238.93 190.99 229.43"/><line class="cls-4" x1="82.22" y1="372.87" x2="91.61" y2="238.93"/></g><g class="cls-13"><path class="cls-6" d="M90.42,241.65,81.31,371.53-5.95,343.71,90.42,241.65m1.19-2.72L-7.77,344.18l90,28.69,9.39-133.94Z"/><path class="cls-6" d="M-6.77,230.53l96.25,9.2L-6.77,341.67V230.53m-1-1.1V344.18L91.61,238.93l-99.38-9.5Z"/><path class="cls-6" d="M-6.91,345.51l86.67,27.63L-15.95,428.4l9-82.89m-.86-1.33-9.39,86.07,99.38-57.38-90-28.69Z"/></g><circle class="cls-14" cx="492.03" cy="29.58" r="5.67"/><circle class="cls-14" cx="144.03" cy="53.58" r="5.67"/><circle class="cls-14" cx="368.03" cy="147.58" r="5.67"/><circle class="cls-14" cx="135.03" cy="200.19" r="5.67"/><circle class="cls-14" cx="91.03" cy="238.19" r="5.67"/><circle class="cls-14" cx="648.03" cy="36.19" r="5.67"/><circle class="cls-14" cx="279.68" cy="52.02" r="5.67"/><circle class="cls-14" cx="492.31" cy="29.58" r="3.65"/><circle class="cls-14" cx="368.44" cy="146.45" r="3.65"/><circle class="cls-14" cx="280.01" cy="52.84" r="3.65"/><circle class="cls-14" cx="144.01" cy="52.84" r="3.65"/><circle class="cls-14" cx="91.2" cy="237.71" r="3.65"/><circle class="cls-14" cx="289.77" cy="172.23" r="3.65"/></g></svg>