<svg id="Muster" xmlns="http://www.w3.org/2000/svg" xmlns:xlink="http://www.w3.org/1999/xlink" viewBox="0 0 1650 650.64"><defs><style>.cls-1,.cls-4,.cls-5{fill:none;}.cls-2{clip-path:url(#clip-path);}.cls-13,.cls-3{fill:#12e7eb;}.cls-4,.cls-5{stroke:#12e7eb;stroke-linecap:round;stroke-linejoin:round;}.cls-10,.cls-5{opacity:0.58;}.cls-6{opacity:0.6;}.cls-7{opacity:0.48;}.cls-8{opacity:0.51;}.cls-9{opacity:0.7;}.cls-11{opacity:0.65;}.cls-12{opacity:0.52;}.cls-13{opacity:0.5;}</style><clipPath id="clip-path"><rect class="cls-1" x="492.94" width="1157.06" height="487.8"/></clipPath></defs><g id="S1a"><g class="cls-2"><g id="S1a-2" data-name="S1a"><path class="cls-3" d="M794.26-24.61h99.18l132.2,109.44L794.26-24.61m-4.45-1L1032.42,89.14,893.8-25.61Z"/><line class="cls-4" x1="893.8" y1="-25.61" x2="993.18" y2="31.76"/><line class="cls-4" x1="993.18" y1="31.76" x2="1092.56" y2="-25.61"/><path class="cls-3" d="M1092.2-24.25l48.08,80.78L996.06,31.25l96.14-55.5m.36-1.36L993.18,31.76l149.07,26.13-49.69-83.5Z"/><line class="cls-4" x1="1092.56" y1="-25.61" x2="1218.68" y2="68.32"/><path class="cls-3" d="M1096-21.82l119,88.63L1142.86,57,1096-21.82m-3.42-3.79,49.69,83.5,76.43,10.43L1092.56-25.61Z"/><line class="cls-5" x1="1218.68" y1="68.32" x2="1291.32" y2="-25.61"/><line class="cls-4" x1="1291.32" y1="-25.61" x2="1460.76" y2="80.86"/><g class="cls-6"><path class="cls-3" d="M1291.92-24.06,1458.46,80.59l-217.31,74.86,50.77-179.51m-.6-1.55L1239.67,157l221.09-76.16L1291.32-25.61Z"/></g><line class="cls-4" x1="1460.76" y1="80.86" x2="1490.08" y2="-25.61"/><g class="cls-7"><path class="cls-3" d="M1560.13-30,1491.08,85.52V-24.69l69.05-5.3m1.85-1.14h0Zm0,0-71.9,5.52V89.14L1562-31.13Z"/></g><path class="cls-3" d="M685.85-37.66l131.47,127L794.26,144.3l-108.41-182m-4.69-5.93L794.42,146.52l24.09-57.38L681.16-43.59Z"/><path class="cls-3" d="M791.05-16.52l26.4,105.58-22.16,52.79L791.05-16.52m-1.24-9.09,4.61,172.13,24.09-57.38L789.81-25.61Z"/><line class="cls-4" x1="794.42" y1="146.52" x2="681.16" y2="-43.59"/><g class="cls-8"><path class="cls-3" d="M790.85-24,1029.43,88.83l-234,56.43L790.85-24m-1-1.6,4.61,172.13,238-57.38h0L789.81-25.61Z"/></g><line class="cls-4" x1="893.8" y1="60.45" x2="794.42" y2="146.52"/><line class="cls-4" x1="915.55" y1="138.24" x2="893.8" y2="60.45"/><path class="cls-3" d="M993.15,33.5l37.75,55.19L918.47,135.92,993.15,33.5m0-1.74L915.55,138.24l116.87-49.1L993.18,31.76Z"/><g class="cls-9"><path class="cls-3" d="M993.62,32.86l144.71,25.36-220.07,78L993.62,32.86m-.44-1.1L915.55,138.24l226.7-80.35h0L993.18,31.76Z"/></g><line class="cls-4" x1="1138.33" y1="170.06" x2="1142.25" y2="57.89"/><path class="cls-3" d="M1143.21,59l73.6,10-77.37,98,3.77-108m-1-1.14-3.92,112.17,80.35-101.74-76.43-10.43Z"/><line class="cls-4" x1="1266.47" y1="227.45" x2="1138.33" y2="170.06"/><g class="cls-10"><path class="cls-3" d="M1218.18,70.57l20.26,85.6-97.8,12.59,77.54-98.19m.5-2.25-80.35,101.74,101.34-13h0l-21-88.7Z"/></g><polygon class="cls-3" points="1397.63 135.89 1138.33 170.06 1239.67 157.02 1397.63 135.89 1397.63 135.89"/><g class="cls-11"><path class="cls-3" d="M1393.7,137.42l-127.33,88.89L1142,170.59l251.74-33.17m3.93-1.53h0Zm0,0-259.3,34.17,128.14,57.39,131.16-91.56Z"/></g><path class="cls-3" d="M1397.31,136.94l36.08,31.93-183.67-12.19,147.59-19.74m.32-1.05-158,21.13,196.57,13-38.61-34.17Z"/><path class="cls-3" d="M1398.39,137.89l36.45,32.26-47.28,54.18,10.83-86.44m-.76-2-11.47,91.56,50.08-57.39-38.61-34.17Z"/><path class="cls-3" d="M1461.46,82.09l27,7.64-49.63,74.6,22.6-82.24m-.7-1.23-24.52,89.2,53.84-80.92h0l-29.32-8.28Z"/><path class="cls-3" d="M1490.52,90.29l81.91,21-133.51,56.5,51.6-77.55m-.44-1.15-53.84,80.92,139.31-58.95-85.47-22Z"/><path class="cls-3" d="M1493.1,91l81.6,21,18.93,88.59L1493.1,91m-3-1.81,105.29,114.75-19.82-92.78-85.47-22Z"/><path class="cls-3" d="M1575.9,117.53l18.44,86.34L1551,361.77l24.88-244.24m-.35-6.42L1548.81,373.6l46.56-169.71-19.82-92.78Z"/><g class="cls-12"><path class="cls-3" d="M1563.38-28.44l124.1,117.67L1596,201.49,1563.38-28.44m-1.4-2.7,33.39,235,93.47-114.75h0L1562-31.14Z"/></g><path class="cls-3" d="M1686.72,204.89,1551,369.37l45.13-164.48h90.58m2.12-1h0Zm0,0h-93.47L1548.81,373.6l140-169.71Z"/><line class="cls-4" x1="1266.47" y1="227.45" x2="1266.47" y2="227.45"/><line class="cls-4" x1="1341.01" y1="276.5" x2="1266.47" y2="227.45"/><path class="cls-3" d="M1395.68,143.41,1385.2,227,1344,271.79l51.7-128.38m2-7.52h0Zm0,0L1341,276.5l45.15-49.05h0l11.47-91.56Z"/><path class="cls-3" d="M1384.92,230.27l-9.57,116.51-33.15-70.1,42.72-46.41m1.24-2.82Zm0,0L1341,276.5l35,74.08,10.12-123.13Z"/><path class="cls-3" d="M1570.89,115.14,1423.88,292,1387.5,227.8l183.39-112.66m4.66-4Zm0,0L1386.16,227.45l37.56,66.26,151.83-182.6Z"/><path class="cls-3" d="M1422.92,296.22l9,108.6-54.49-54.3,45.52-54.3m.8-2.51L1376,350.58l57.07,56.87-9.39-113.74Z"/><path class="cls-3" d="M1515.41,257.24l31.74,114.12-121.27-77.45,89.53-36.67m.66-1.35-92.35,37.82,125.09,79.89-32.74-117.71Z"/><path class="cls-3" d="M1513.84,257.88l-80,146.17-9.06-109.69,89.06-36.48m2.23-2Zm0,0-92.35,37.82,9.39,113.74,83-151.56Z"/><path class="cls-3" d="M1517.55,257.49,1686,318.68l-136.53,53.59-31.93-114.78m-1.48-1.6,32.74,117.71,140-55-172.77-62.76Z"/><path class="cls-3" d="M1687.84,206.68V318L1552,371.26l135.8-164.58m1-2.79-140,169.71,140-55V203.89Z"/><path class="cls-3" d="M1519.83,258.32l168,61V430.94l-168-172.62m-3.76-2.43L1688.84,433.4V318.65l-172.77-62.76Z"/><circle class="cls-13" cx="817.85" cy="89.14" r="3.65"/><circle class="cls-13" cx="894.09" cy="61.1" r="3.65"/><circle class="cls-13" cx="1031.27" cy="89.1" r="3.65"/><circle class="cls-13" cx="1141.27" cy="57.1" r="3.65"/><circle class="cls-13" cx="1139.27" cy="170.1" r="3.65"/><circle class="cls-13" cx="1240.27" cy="156.1" r="3.65"/><circle class="cls-13" cx="1386.94" cy="228.67" r="3.65"/><circle class="cls-13" cx="1516.94" cy="257.67" r="3.65"/><circle class="cls-13" cx="1573.94" cy="112.67" r="3.65"/><circle class="cls-13" cx="1432.94" cy="402.67" r="3.65"/><circle class="cls-13" cx="1375.94" cy="349.67" r="3.65"/><circle class="cls-13" cx="1267.94" cy="227.67" r="3.65"/><circle class="cls-13" cx="1459.94" cy="81.67" r="3.65"/><circle class="cls-13" cx="1548.94" cy="371.67" r="3.65"/><circle class="cls-13" cx="915.94" cy="137.67" r="3.65"/><circle class="cls-13" cx="1397.63" cy="137.67" r="3.65"/><circle class="cls-13" cx="1216.78" cy="68.32" r="5.67"/><circle class="cls-13" cx="1341.42" cy="275.67" r="5.67"/><circle class="cls-13" cx="1517.42" cy="257.67" r="5.67"/><circle class="cls-13" cx="1142.42" cy="56.67" r="5.67"/><circle class="cls-13" cx="1460.42" cy="81.67" r="5.67"/><circle class="cls-13" cx="794.42" cy="145.67" r="5.67"/><circle class="cls-13" cx="1574.42" cy="112.67" r="5.67"/><circle class="cls-13" cx="1386.42" cy="228.67" r="5.67"/><circle class="cls-13" cx="1240.42" cy="155.67" r="5.67"/><circle class="cls-13" cx="1432.94" cy="404.02" r="5.67"/></g></g></g></svg>