<svg id="Muster" xmlns="http://www.w3.org/2000/svg" xmlns:xlink="http://www.w3.org/1999/xlink" viewBox="0 0 1650 650.64"><defs><style>.cls-1,.cls-11,.cls-3,.cls-7{fill:none;}.cls-2{clip-path:url(#clip-path);}.cls-11,.cls-3,.cls-7{stroke:#12e7eb;stroke-linecap:round;stroke-linejoin:round;}.cls-13,.cls-4{fill:#12e7eb;}.cls-5{opacity:0.58;}.cls-6,.cls-7{opacity:0.38;}.cls-8{opacity:0.1;}.cls-9{opacity:0.42;}.cls-10,.cls-11{opacity:0.55;}.cls-12{opacity:0.53;}.cls-13{opacity:0.5;}</style><clipPath id="clip-path"><rect id="SVGID" class="cls-1" y="164.56" width="1160.11" height="486.08"/></clipPath></defs><g class="cls-2"><line class="cls-3" x1="751.2" y1="583.56" x2="787.27" y2="650.56"/><line class="cls-3" x1="787.27" y1="650.56" x2="687.89" y2="593.18"/><polyline class="cls-3" points="787.27 650.55 751.2 583.57 687.89 593.18"/><line class="cls-3" x1="687.89" y1="593.18" x2="588.51" y2="650.56"/><path class="cls-4" d="M589.51,537.53l96.38,55.65-96.38,55.64V537.53m-1-1.73V650.56l99.38-57.38L588.51,535.8Z"/><line class="cls-3" x1="588.51" y1="650.56" x2="489.13" y2="635.22"/><path class="cls-4" d="M587.51,538.22V649.39l-96.28-14.86,96.28-96.31m1-2.42-99.38,99.42,99.38,15.34V535.8Z"/><path class="cls-4" d="M346.8,602.36,483.94,635l-93.81,14.48L346.8,602.36m-2.95-1.73,45.9,49.93,99.38-15.34L343.85,600.63Z"/><line class="cls-3" x1="389.75" y1="650.56" x2="279.29" y2="589.24"/><path class="cls-4" d="M285,591.26l58.36,10.29,41.48,45.13L285,591.26m-5.7-2,110.46,61.32-45.9-49.93-64.56-11.39Z"/><line class="cls-3" x1="279.29" y1="589.24" x2="190.99" y2="650.56"/><g class="cls-5"><path class="cls-4" d="M51.11,512.82l226,76.72-86,59.72-140-136.44m-3.86-2.37L191,650.56l88.3-61.32-232-78.79Z"/></g><line class="cls-3" x1="190.99" y1="650.56" x2="47.25" y2="589.24"/><path class="cls-4" d="M48.25,512.82,186.46,647.54l-138.21-59V512.82m-1-2.37v78.79L191,650.56,47.25,510.45Z"/><line class="cls-3" x1="47.25" y1="589.24" x2="-7.77" y2="650.56"/><path class="cls-4" d="M-6.77,538.17l52.63,51.11L-6.77,647.94V538.17m-1-2.37V650.56l55-61.32-55-53.44Z"/><line class="cls-3" x1="751.2" y1="583.56" x2="751.2" y2="583.57"/><g class="cls-6"><line class="cls-3" x1="613.07" y1="603.69" x2="751.2" y2="583.57"/><path class="cls-4" d="M751.2,583.57h0Zm0,0L613.07,603.69l74.82-10.51,63.31-9.61Z"/><polyline class="cls-3" points="613.07 603.69 588.51 535.8 588.51 535.8 687.89 593.18"/><path class="cls-4" d="M489,504.27l98.78,32.33,23.2,64.12L489,504.27m-5-2.7L613.07,603.69,588.51,535.8,483.94,501.57Z"/><line class="cls-3" x1="483.94" y1="501.57" x2="613.07" y2="603.69"/></g><g class="cls-6"><path class="cls-4" d="M483.84,502.6l96.75,31.66L356.78,519,483.84,502.6m.1-1L346.59,519.33,588.51,535.8,483.94,501.57Z"/></g><polyline class="cls-7" points="418.03 425.81 346.59 519.33 483.94 501.57"/><path class="cls-4" d="M347.52,521.37,485.1,633.23,344.88,599.84l2.64-78.47m-.93-2-2.74,81.3h0l145.28,34.59L346.59,519.33Z"/><g class="cls-6"><path class="cls-4" d="M480.08,503.08,344.92,598.65l2.64-78.44,132.52-17.13m3.86-1.51L346.59,519.33l-2.74,81.3,140.09-99.06Z"/></g><g class="cls-6"><path class="cls-4" d="M418.08,427.39,482,500.82,348.84,518l69.24-90.64m-.05-1.58-71.44,93.52,137.35-17.76L418,425.81Z"/></g><g class="cls-6"><path class="cls-4" d="M480.42,502.84,343.91,599.36,250.4,520.14l230-17.3m3.52-1.27h0Zm0,0-236,17.76,96,81.3,140.09-99.06Z"/></g><polyline class="cls-3" points="247.89 519.33 279.29 589.24 343.85 600.63"/><polyline class="cls-7" points="483.94 501.57 199.46 473.09 247.89 519.33"/><g class="cls-8"><path class="cls-4" d="M141.31,438.74l103.45,79.45L50,509.57l91.3-70.83m0-1.27-94.05,73,200.64,8.88L141.3,437.47Z"/></g><g class="cls-8"><path class="cls-4" d="M156.94,448.22l41.91,25.66,34.89,33.32-76.8-59M141.3,437.47l106.59,81.86-48.43-46.24L141.3,437.47Z"/></g><g class="cls-8"><path class="cls-4" d="M140.92,439l32.21,70.41h-123L140.92,439m.38-1.57-94.05,73H174.69l-33.39-73Z"/></g><g class="cls-9"><path class="cls-4" d="M171.17,511.45l-122.92,76v-76H171.17m3.52-1H47.25v78.79l127.44-78.79Z"/></g><g class="cls-10"><path class="cls-4" d="M47.27,400.49l93.29,37.76,31.34,68.51L47.27,400.49m-5.35-3.25L174.69,510.45l-33.39-73L41.92,397.24Z"/></g><path class="cls-4" d="M170.13,512.09,47.38,588l-53-51.46,175.73-24.42m4.56-1.64Zm0,0L-7.77,535.8h0l55,53.44,127.44-78.79Z"/><g class="cls-8"><path class="cls-4" d="M-6.77,422.65l178.08,87.26L-6.77,534.65v-112m-1-1.6V535.8l182.46-25.35L-7.77,421.05Z"/></g><polyline class="cls-11" points="174.69 510.45 41.92 397.24 -7.77 421.05"/><g class="cls-6"><line class="cls-3" x1="418.03" y1="425.81" x2="418.03" y2="425.81"/></g><line class="cls-7" x1="359.11" y1="378.52" x2="418.03" y2="425.81"/><g class="cls-6"><path class="cls-4" d="M373.77,391.57l43.57,35,48.73,56-92.3-91m-14.66-13.05L483.94,501.57,418,425.81l-58.92-47.29Z"/></g><g class="cls-6"><path class="cls-4" d="M359,379.78,481.22,500.3,202.59,472.4,359,379.78m.15-1.26L199.46,473.09h0l284.48,28.48-124.83-123Z"/></g><g class="cls-6"><path class="cls-4" d="M248.5,357l107.87,22L201.53,470.7,248.5,357m-.61-1.14L199.46,473.09l159.65-94.57L247.89,355.83Z"/></g><line class="cls-7" x1="247.89" y1="355.83" x2="359.11" y2="378.52"/><g class="cls-8"><path class="cls-4" d="M174.37,366.8,198,471l-55.38-33.92,31.79-70.28m.32-3.13-33.39,73.8,58.16,35.62L174.69,363.67Z"/></g><g class="cls-12"><path class="cls-4" d="M175.69,266,246,355l-70.29,7.53V266m-1-2.88V363.67l73.2-7.84-73.2-92.74Z"/></g><g class="cls-10"><path class="cls-4" d="M172.92,365.15l-32.13,71L45.13,397.46l127.79-32.31m1.77-1.48Zm0,0L41.92,397.24h0l99.38,40.23,33.39-73.8Z"/></g><g class="cls-10"><path class="cls-4" d="M115,280.94l58,82.12-129,32.61L115,280.94m-.06-1.81-73,118.11,132.77-33.57-59.75-84.54Z"/></g><path class="cls-4" d="M173.69,264.39v96.13l-57.1-80.8,57.1-15.33m1-1.3-59.75,16,59.75,84.54V263.09Z"/><g class="cls-10"><path class="cls-4" d="M-6.77,310.21,40.54,396.8-6.77,419.46V310.21m-1-3.92V421.05l49.69-23.81L-7.77,306.29Z"/><path class="cls-4" d="M-6.77,193.48l119.3,85.16L-6.77,305.05V193.48m-1-1.94V306.29l122.71-27.16L-7.77,191.54Z"/></g><circle class="cls-13" cx="588.51" cy="535.8" r="5.67"/><circle class="cls-13" cx="344.44" cy="601.26" r="5.67"/><circle class="cls-13" cx="248.61" cy="519.65" r="5.67"/><circle class="cls-13" cx="140.61" cy="436.65" r="5.67"/><circle class="cls-13" cx="358.61" cy="378.57" r="5.67"/><circle class="cls-13" cx="174.61" cy="362.57" r="5.67"/><circle class="cls-13" cx="173.94" cy="510" r="5.67"/><circle class="cls-13" cx="47.94" cy="589" r="5.67"/><circle class="cls-13" cx="588.51" cy="535.8" r="3.65"/><circle class="cls-13" cx="358.63" cy="378.85" r="3.65"/><circle class="cls-13" cx="174.05" cy="362.48" r="3.65"/><circle class="cls-13" cx="174.05" cy="510.48" r="3.65"/><circle class="cls-13" cx="344.31" cy="601.22" r="3.65"/><circle class="cls-13" cx="348.77" cy="518.87" r="3.65"/></g></svg>