<svg id="Muster" xmlns="http://www.w3.org/2000/svg" xmlns:xlink="http://www.w3.org/1999/xlink" viewBox="0 0 1650 650.64"><defs><style>.cls-1,.cls-3,.cls-6{fill:none;}.cls-2{clip-path:url(#clip-path);}.cls-3,.cls-6{stroke:#12e7eb;stroke-linecap:round;stroke-linejoin:round;}.cls-4,.cls-9{fill:#12e7eb;}.cls-5{opacity:0.7;}.cls-6,.cls-7{opacity:0.36;}.cls-8{opacity:0.38;}.cls-9{opacity:0.5;}</style><clipPath id="clip-path"><rect id="SVGID" class="cls-1" width="1160.11" height="486.08"/></clipPath></defs><g class="cls-2"><line class="cls-3" x1="687.89" x2="588.51"/><path class="cls-4" d="M685.92,1,627,81.23,590.07,1h95.85m2-1H588.51l38.26,83.19L687.89,0Z"/><line class="cls-3" x1="588.51" x2="505.46" y2="28.69"/><g class="cls-5"><line class="cls-3" x1="505.46" y1="28.69" x2="389.75"/><path class="cls-4" d="M390.27,1.16l112.82,28L299,171.93,390.27,1.16M389.75,0,296.11,175.14,505.46,28.69,389.75,0Z"/><line class="cls-3" x1="389.75" x2="237.81" y2="63.23"/><path class="cls-4" d="M387.55,2,296.13,173,239.2,63.73,387.55,2m2.2-2L237.81,63.23l58.3,111.91L389.75,0Z"/><line class="cls-3" x1="237.81" y1="63.23" x2="190.99"/><path class="cls-4" d="M191.43,2.26l45,60.8L158.18,127.4,191.43,2.26M191,0,156.42,130.14l81.39-66.91L191,0Z"/><line class="cls-3" x1="190.99" x2="129.03" y2="24.88"/><path class="cls-4" d="M189.51,1.67,156.43,126.21,130.22,25.48,189.51,1.67M191,0,129,24.88l27.39,105.26L191,0Z"/></g><line class="cls-3" x1="129.03" y1="24.88" x2="-7.77"/><path class="cls-4" d="M-6.77,1.2,126.39,25.42-6.77,112.9V1.2m-1-1.2V114.75L129,24.88-7.77,0Z"/><polyline class="cls-3" points="626.77 83.19 626.77 83.19 687.89 0"/><line class="cls-6" x1="469.07" y1="123.1" x2="626.77" y2="83.19"/><g class="cls-7"><path class="cls-4" d="M506,30,623.74,82.92l-153,38.73L506,30m-.56-1.34L469.07,123.1l157.7-39.91L505.46,28.69Z"/></g><line class="cls-6" x1="474.16" y1="222.88" x2="469.07" y2="123.1"/><polyline class="cls-6" points="469.07 123.1 296.12 175.14 296.12 175.14"/><g class="cls-7"><path class="cls-4" d="M460.16,126.82,340,192.43,299.07,175.3l161.09-48.48m8.91-3.72-173,52,43.95,18.39,129-70.43Z"/></g><g class="cls-7"><path class="cls-4" d="M468.15,124.74l4.94,96.88-130.2-28.49,125.26-68.39m.92-1.64-129,70.43,134.1,29.35-5.09-99.78Z"/></g><path class="cls-4" d="M287.1,98l50.73,93.54L297,174.44,287.1,98m-1.68-5.2,10.69,82.37,43.95,18.39L285.42,92.77Z"/><g class="cls-5"><path class="cls-4" d="M240.38,66l44.1,27.37,9.92,76.31L240.38,66m-2.57-2.77,58.3,111.91L285.42,92.77,237.81,63.23Z"/></g><g class="cls-8"><path class="cls-4" d="M285.45,94.93l53,97.71-106,7.39,53-105.1m0-2.16L230.77,201.15l109.29-7.62L285.42,92.77Z"/></g><g class="cls-5"><path class="cls-4" d="M237.89,64.46l45.09,28-122.17,35.4,77.08-63.37m-.08-1.23-81.39,66.91h0l129-37.37L237.81,63.23Z"/></g><g class="cls-7"><path class="cls-4" d="M280.15,95.34l-132.91,96,10.06-60.37L280.15,95.34m5.27-2.57-129,37.37-10.57,63.39L285.42,92.77Z"/></g><polyline class="cls-6" points="230.77 201.15 145.85 193.53 285.42 92.77"/><g class="cls-7"><path class="cls-4" d="M102.93,116.37l52.36,14.5-10,59.73-42.4-74.23m-2.08-1.62,45,78.78,10.57-63.39-55.57-15.39Z"/></g><g class="cls-8"><path class="cls-4" d="M128.94,28.51,155,128.72l-52.9-14.65,26.82-85.56m.09-3.63-28.18,89.87,55.57,15.39L129,24.88Z"/></g><g class="cls-7"><path class="cls-4" d="M101.63,118.12l43,75.27L92.8,248.2l8.83-130.08m-.78-3.37L91.61,250.91l54.24-57.38-45-78.78Z"/></g><polyline class="cls-3" points="100.86 114.75 -7.77 114.75 -7.77 114.75 129.03 24.88"/><path class="cls-4" d="M97.77,115.75-6.77,191.57V115.75H97.77m3.08-1H-7.77v78.78l108.62-78.78Z"/><g class="cls-7"><path class="cls-4" d="M99.71,116.82l-9,132.42-96.65-55.8L99.71,116.82m1.14-2.07L-7.77,193.53l99.38,57.38,9.24-136.16Z"/></g><g class="cls-7"><line class="cls-3" x1="145.85" y1="193.53" x2="230.77" y2="201.14"/><polyline class="cls-3" points="91.61 250.91 91.61 250.91 145.85 193.53"/><line class="cls-3" x1="33.55" y1="321.23" x2="91.61" y2="250.91"/></g><g class="cls-7"><path class="cls-4" d="M87.31,254.55l-54.1,65.52L-5.29,308l92.6-53.46m4.3-3.64L-7.77,308.29l41.32,12.94,58.06-70.32Z"/><path class="cls-4" d="M-6.77,195.27l96.38,55.64L-6.77,306.56V195.27m-1-1.74V308.29l99.38-57.38L-7.77,193.53Z"/><path class="cls-4" d="M-6.77,309.65,32,321.8l-38.8,63.74V309.65m-1-1.36V389.1l41.32-67.87L-7.77,308.29Z"/></g><circle class="cls-9" cx="285.29" cy="94.53" r="5.67"/><circle class="cls-9" cx="129.29" cy="25.53" r="5.67"/><circle class="cls-9" cx="101.29" cy="115.32" r="5.67"/><circle class="cls-9" cx="91.29" cy="250.32" r="5.67"/><circle class="cls-9" cx="505.64" cy="29.75" r="5.67"/><circle class="cls-9" cx="238.46" cy="64.27" r="3.65"/><circle class="cls-9" cx="91.77" cy="250.01" r="3.65"/><circle class="cls-9" cx="128.77" cy="26.01" r="3.65"/><circle class="cls-9" cx="101.77" cy="116.01" r="3.65"/><circle class="cls-9" cx="285.77" cy="94.01" r="3.65"/><circle class="cls-9" cx="469.77" cy="124.01" r="3.65"/><circle class="cls-9" cx="505.77" cy="30.01" r="3.65"/><circle class="cls-9" cx="146.64" cy="193.1" r="3.65"/></g></svg>