<svg id="Muster" xmlns="http://www.w3.org/2000/svg" xmlns:xlink="http://www.w3.org/1999/xlink" viewBox="0 0 1650 650.64"><defs><style>.cls-1,.cls-11,.cls-14,.cls-3,.cls-7,.cls-8{fill:none;}.cls-2{clip-path:url(#clip-path);}.cls-11,.cls-14,.cls-3,.cls-7,.cls-8{stroke:#12e7eb;stroke-linecap:round;stroke-linejoin:round;}.cls-16,.cls-4{fill:#12e7eb;}.cls-16,.cls-5,.cls-7{opacity:0.5;}.cls-6{opacity:0.36;}.cls-8,.cls-9{opacity:0.65;}.cls-10{opacity:0.41;}.cls-11,.cls-12{opacity:0.64;}.cls-13,.cls-14{opacity:0.72;}.cls-15{opacity:0.49;}</style><clipPath id="clip-path"><rect id="SVGID" class="cls-1" y="164.56" width="1160.11" height="486.08"/></clipPath></defs><g class="cls-2"><line class="cls-3" x1="687.89" y1="650.64" x2="588.51" y2="650.64"/><path class="cls-4" d="M550,600.5l132.33,49.14H589L550,600.5m-3-2.18,41.52,52.32h99.38L547,598.32Z"/><line class="cls-3" x1="588.51" y1="650.64" x2="481.2" y2="596.02"/><path class="cls-4" d="M485.68,597.18l60.81,2.12,38.39,48.36-99.2-50.48M481.2,596l107.31,54.62L547,598.32,481.2,596Z"/><g class="cls-5"><line class="cls-3" x1="481.2" y1="596.02" x2="389.75" y2="650.64"/><path class="cls-4" d="M311,559.42l167.51,37L390,649.35,311,559.42m-2.76-1.63,81.49,92.85L481.2,596,308.26,557.79Z"/><line class="cls-3" x1="389.75" y1="650.64" x2="417.81" y2="609.47"/><path class="cls-4" d="M312.18,560.75l104.14,49.12L389.65,649l-77.47-88.26m-3.92-3,81.49,92.85,28.06-41.17L308.26,557.79Z"/><line class="cls-3" x1="417.81" y1="609.47" x2="190.99" y2="650.64"/><path class="cls-4" d="M181.43,547.34l231.81,61.94L191.88,649.46,181.43,547.34M180.29,546,191,650.64l226.82-41.17L180.29,546Z"/><line class="cls-3" x1="190.99" y1="650.64" x2="80.12" y2="621.95"/><path class="cls-4" d="M179.48,547.87l10.37,101.44L82.37,621.5l97.11-73.63m.81-1.87L80.12,622,191,650.64,180.29,546Z"/></g><g class="cls-6"><line class="cls-3" x1="80.12" y1="621.95" x2="-7.77" y2="650.64"/><path class="cls-4" d="M-6.77,538.26l85,83.25-85,27.75v-111m-1-2.38V650.64L80.12,622-7.77,535.88Z"/></g><polyline class="cls-3" points="546.99 598.32 546.99 598.32 687.89 650.63"/><line class="cls-3" x1="481.2" y1="596.02" x2="546.99" y2="598.32"/><polyline class="cls-7" points="308.26 557.79 308.26 557.79 481.2 596.02"/><line class="cls-8" x1="340.06" y1="421.13" x2="308.26" y2="557.79"/><g class="cls-9"><path class="cls-4" d="M338.17,424.84l-29.9,128.47-16.81-74.53,46.71-53.94m1.89-3.71h0Zm0,0L290.37,478.5l17.89,79.29,31.8-136.66Z"/></g><g class="cls-9"><path class="cls-4" d="M292.13,481.74,413.24,606.21,309.12,557.09l-17-75.35m-1.76-3.24,17.89,79.29,109.55,51.68-127.44-131Z"/></g><g class="cls-10"><path class="cls-4" d="M337.74,422.28l-47.09,54.38-22.27-49.79,69.36-4.59m2.32-1.15h0Zm0,0L266.88,426l23.49,52.53,49.69-57.37Z"/></g><g class="cls-10"><path class="cls-4" d="M290.21,479.77,414.56,607.56,182.8,545.63l107.41-65.86m.16-1.27L180.29,546l237.52,63.47-127.44-131Z"/></g><polyline class="cls-11" points="290.37 478.5 153.01 413.05 180.29 546"/><g class="cls-12"><path class="cls-4" d="M158.84,414.72,266.2,426.9l22.15,49.53L158.84,414.72M153,413.05,290.37,478.5,266.88,426,153,413.05Z"/></g><g class="cls-13"><path class="cls-4" d="M153.11,418.51l25.72,125.35-42.18-27.3,16.46-98m-.1-5.46L135.55,517l44.74,29L153,413.05Z"/></g><g class="cls-13"><path class="cls-4" d="M135.93,518.47l42.62,27.59L83.11,618.42l52.82-99.95m-.38-1.43L80.12,622l100.17-76-44.74-29Z"/></g><g class="cls-13"><path class="cls-4" d="M151.78,414.38,135,514.51,76,432.46l75.74-18.08m1.23-1.33h0Zm0,0L74.36,431.84,135.55,517l17.46-104Z"/></g><g class="cls-13"><path class="cls-4" d="M133.77,518.28l-53.91,102L-5.6,536.6l139.37-18.32m1.78-1.24h0Zm0,0L-7.77,535.88h0L80.12,622,135.55,517Z"/></g><polyline class="cls-14" points="135.55 517.04 -7.77 421.13 -7.77 535.88"/><g class="cls-13"><path class="cls-4" d="M-3.66,422.67l77.46,10.1,57.72,80.37L-3.66,422.67m-4.11-1.54L135.55,517l-61.19-85.2L-7.77,421.13Z"/></g><g class="cls-12"><line class="cls-3" x1="153.01" y1="413.05" x2="266.88" y2="425.97"/><polyline class="cls-3" points="74.36 431.84 74.36 431.84 153.01 413.05"/><line class="cls-3" x1="49.71" y1="312.1" x2="74.36" y2="431.84"/></g><g class="cls-15"><path class="cls-4" d="M49,313.45,72.6,428.23-7.14,334.69,49,313.45m.74-1.35L-8.83,334.26l83.19,97.58L49.71,312.1Z"/><path class="cls-4" d="M-7.79,337l79.71,93.5-78.7-10.26-1-83.24m-1-2.75,1.06,86.87,82.13,10.71L-8.83,334.26Z"/><path class="cls-4" d="M-7.83,223l56,88.64-56,21.21V223m-1-3.46V334.26L49.71,312.1-8.83,219.5Z"/></g><circle class="cls-16" cx="308.77" cy="557.78" r="5.67"/><circle class="cls-16" cx="180.25" cy="545.73" r="5.67"/><circle class="cls-16" cx="547.64" cy="599.39" r="5.67"/><circle class="cls-16" cx="339.64" cy="421.39" r="5.67"/><circle class="cls-16" cx="73.64" cy="431.17" r="5.67"/><circle class="cls-16" cx="72.96" cy="431.08" r="3.65"/><circle class="cls-16" cx="179.96" cy="546.39" r="3.65"/><circle class="cls-16" cx="308.96" cy="557.39" r="3.65"/><circle class="cls-16" cx="338.96" cy="421.39" r="3.65"/><circle class="cls-16" cx="80.77" cy="620.65" r="3.65"/><circle class="cls-16" cx="135.77" cy="517.65" r="3.65"/><circle class="cls-16" cx="152.59" cy="412.47" r="3.65"/></g></svg>