<svg id="Muster" xmlns="http://www.w3.org/2000/svg" xmlns:xlink="http://www.w3.org/1999/xlink" viewBox="0 0 1650 650.64"><defs><style>.cls-1,.cls-3{fill:none;}.cls-2{clip-path:url(#clip-path);}.cls-3{stroke:#12e7eb;stroke-linecap:round;stroke-linejoin:round;}.cls-4,.cls-9{fill:#12e7eb;}.cls-5{opacity:0.62;}.cls-6{opacity:0.7;}.cls-7{opacity:0.57;}.cls-8{opacity:0.4;}.cls-9{opacity:0.5;}</style><clipPath id="clip-path"><rect id="SVGID" class="cls-1" x="489.89" width="1160.11" height="486.08"/></clipPath></defs><g class="cls-2"><line class="cls-3" x1="1090.52" y1="0.17" x2="1262.06" y2="-0.17"/><path class="cls-4" d="M1260.28.83,1236.48,40,1097.75,1.15,1260.28.83m1.78-1h0Zm0,0L1090.52.17l146.42,41L1262.06-.17Z"/><line class="cls-3" x1="1262.06" y1="-0.17" x2="1357.11" y2="28.51"/><path class="cls-4" d="M1262.51,1l89.57,27-113.24,11.9L1262.51,1m-.45-1.18-25.12,41.31,120.17-12.63-95-28.68Z"/><line class="cls-3" x1="1357.11" y1="28.51" x2="1460.82" y2="-0.17"/><path class="cls-4" d="M1459.32,1.28l-34.44,111.19-66.05-83.39,100.49-27.8m1.5-1.45h0Zm0,0L1357.11,28.51l68.16,86.07L1460.82-.17Z"/><line class="cls-3" x1="1460.82" y1="-0.17" x2="1510.51" y2="33.32"/><path class="cls-4" d="M1461.38,1.41l47.54,32.05-81.56,77.74,34-109.79m-.56-1.58-35.55,114.75,85.24-81.26L1460.82-.17Z"/><line class="cls-3" x1="1510.51" y1="33.32" x2="1659.58" y2="-0.17"/><path class="cls-4" d="M1658.58,1.08V112.9L1513.32,33.72,1658.58,1.08m1-1.25L1510.51,33.32l149.07,81.26V-.17Z"/><g class="cls-5"><line class="cls-3" x1="1187.63" y1="14.17" x2="1090.52" y2="0.17"/><g class="cls-6"><path class="cls-4" d="M1105.62,3.35l81.69,11.78,41.48,22.69L1105.62,3.35M1090.52.17l146.42,41-49.31-27-97.11-14Z"/></g><path class="cls-4" d="M1189.51,16.34l46.43,25.39v98.81l-46.43-124.2m-1.88-2.17,49.31,131.9V41.14l-49.31-27Z"/><line class="cls-3" x1="1236.94" y1="146.07" x2="1187.63" y2="14.17"/><path class="cls-4" d="M1237.94,43.09,1312.4,96.8l-74.46,47.45V43.09m-1-2V146.07l77.24-49.22-77.24-55.71Z"/><polyline class="cls-3" points="1314.18 96.85 1357.11 28.51 1236.94 41.14"/><polyline class="cls-3" points="1236.94 146.07 1395.07 149.54 1314.18 96.85"/><g class="cls-7"><path class="cls-4" d="M1357.21,30.24l65.68,83L1315.83,96.1l41.38-65.86m-.1-1.73-42.93,68.34,111.09,17.73-68.16-86.07Z"/></g><path class="cls-4" d="M1318.33,98.52l106.21,17,28.87,77.16L1318.33,98.52m-4.15-1.67,141.29,98.44-30.2-80.71L1314.18,96.85Z"/><path class="cls-4" d="M1367.4,132.71l27.09,17.65,20.23,15.32-47.32-33m-53.22-35.86,141.29,98.44-60.4-45.75-80.89-52.69Z"/></g><g class="cls-5"><path class="cls-4" d="M1557.26,115.58l-101.33,78.09-29.22-78.09h130.55m2.94-1h0Zm0,0H1425.27l30.2,80.71,104.73-80.71Z"/><polyline class="cls-3" points="1560.2 114.58 1510.51 33.33 1425.27 114.58"/><path class="cls-4" d="M1557.49,117.93l-25.65,53.65-71.5,21.22,97.15-74.87m2.71-3.35h0Zm0,0-104.73,80.71,77.08-22.87,27.65-57.84Z"/><path class="cls-4" d="M1513.31,36l142.35,77.59h-94.9L1513.31,36m-2.8-2.67,49.69,81.26h99.38L1510.51,33.32Z"/><path class="cls-4" d="M1562.9,115.58h95.61l-5.14,77.65-90.47-77.65m-2.7-1,94,80.71,5.35-80.71Z"/><path class="cls-4" d="M1560.54,116.19l90.21,77.43-116.74-22,26.53-55.48m-.34-1.61-27.65,57.84,121.68,22.87-94-80.71Z"/></g><g class="cls-8"><line class="cls-3" x1="1455.47" y1="195.29" x2="1395.07" y2="149.54"/><polyline class="cls-3" points="1532.55 172.42 1532.55 172.42 1455.47 195.29"/><line class="cls-3" x1="1576.46" y1="161.06" x2="1532.55" y2="172.42"/><path class="cls-4" d="M1576,162.21l73.42,119.89L1534.54,172.93,1576,162.21m.47-1.15-43.91,11.36,121.68,115.64-77.77-127Z"/><path class="cls-4" d="M1535.69,174l117.54,22.09v89.61L1535.69,174m-3.14-1.61,121.68,115.64V195.29l-121.68-22.87Z"/><path class="cls-4" d="M1579.21,163.64l84.64,44.55-10.24,76.95-74.4-121.5m-2.75-2.58,77.77,127,10.7-80.43-88.47-46.57Z"/></g><circle class="cls-9" cx="1510.68" cy="33.8" r="5.67"/><circle class="cls-9" cx="1424.68" cy="114.8" r="5.67"/><circle class="cls-9" cx="1312.85" cy="96.58" r="5.67"/><circle class="cls-9" cx="1186.85" cy="14.54" r="5.67"/><circle class="cls-9" cx="1577.13" cy="162.06" r="5.67"/><circle class="cls-9" cx="1313" cy="97.32" r="3.65"/><circle class="cls-9" cx="1187" cy="15.32" r="3.65"/><circle class="cls-9" cx="1425" cy="115.32" r="3.65"/><circle class="cls-9" cx="1560.03" cy="114.75" r="3.65"/></g></svg>