<svg id="Muster" xmlns="http://www.w3.org/2000/svg" xmlns:xlink="http://www.w3.org/1999/xlink" viewBox="0 0 1650 650.64"><defs><style>.cls-1,.cls-3,.cls-5,.cls-9{fill:none;}.cls-2{clip-path:url(#clip-path);}.cls-3,.cls-5,.cls-9{stroke:#12e7eb;stroke-linecap:round;stroke-linejoin:round;}.cls-11,.cls-4{fill:#12e7eb;}.cls-5,.cls-8{opacity:0.41;}.cls-6{opacity:0.53;}.cls-7,.cls-9{opacity:0.59;}.cls-10{opacity:0.33;}.cls-11{opacity:0.5;}</style><clipPath id="clip-path"><rect id="SVGID" class="cls-1" x="489.89" y="164.56" width="1160.11" height="486.08"/></clipPath></defs><g class="cls-2"><line class="cls-3" x1="1090.52" y1="650.8" x2="1128.22" y2="630.72"/><line class="cls-3" x1="1128.22" y1="630.72" x2="1090.52" y2="650.8"/><line class="cls-3" x1="1128.22" y1="630.72" x2="1262.06" y2="650.46"/><path class="cls-4" d="M1207.79,550.9l52.45,98.28L1130.31,630l77.48-79.11m.24-1.68-79.81,81.5,133.84,19.74-54-101.24Z"/><line class="cls-5" x1="1262.06" y1="650.46" x2="1444.37" y2="593.08"/><g class="cls-6"><path class="cls-4" d="M1209.89,550.58l230.36,42.75-177.7,55.93-52.66-98.68m-1.86-1.36,54,101.24,182.31-57.38L1208,549.22Z"/></g><g class="cls-7"><line class="cls-3" x1="1444.37" y1="593.08" x2="1460.82" y2="650.46"/><path class="cls-4" d="M1342.85,555.12l100.7,38.72L1459,647.73l-116.15-92.61m-5.69-3.26,123.66,98.6-16.45-57.38-107.21-41.22Z"/><line class="cls-3" x1="1460.82" y1="650.46" x2="1524.72" y2="589.92"/><path class="cls-4" d="M1341,553.67l181.61,36.84-61.88,58.63L1341,553.67m-3.87-1.81,123.66,98.6,63.9-60.54-187.56-38.06Z"/></g><line class="cls-3" x1="1524.72" y1="589.92" x2="1659.58" y2="650.46"/><path class="cls-4" d="M1658.58,537.19V648.92L1527.28,590l131.3-52.78m1-1.48-134.86,54.21,134.86,60.54V535.71Z"/><line class="cls-3" x1="1277.29" y1="599.84" x2="1128.22" y2="630.72"/><g class="cls-8"><path class="cls-4" d="M1208.14,550.54l66.74,48.78-143.65,29.75,76.91-78.53m-.11-1.32-79.81,81.5,149.07-30.88L1208,549.22Z"/></g><g class="cls-8"><path class="cls-4" d="M1307.9,515.42l-31.09,82.84-66.65-48.72,97.74-34.12m1.69-1.64Zm0,0L1208,549.22l69.26,50.62,32.3-86.06Z"/></g><line class="cls-5" x1="1309.59" y1="513.78" x2="1277.29" y2="599.84"/><g class="cls-7"><path class="cls-4" d="M1342,510.13,1240.37,539l69.46-24.24,32.12-4.62m14.62-3.11-47,6.76L1208,549.22,1356.57,507Z"/><path class="cls-4" d="M1382.36,459.14l-26.42,47-42.71,6.14,69.13-53.1m3.28-3.77-76.05,58.41,47-6.76,29.07-51.65Z"/><path class="cls-4" d="M1356.9,508.75l83.33,81.67L1338.49,551.3l18.41-42.55m-.33-1.73-19.41,44.84h0l107.21,41.22L1356.57,507Z"/><path class="cls-4" d="M1458.22,485l-119,64.59,18-41.72L1458.22,485m6.85-2.58L1356.57,507l-19.41,44.84,127.91-69.43Z"/><path class="cls-4" d="M1386.1,456.58l75.3,25.66-102.86,23.3,27.56-49m-.46-1.21L1356.57,507l108.5-24.59-79.43-27.06Z"/></g><g class="cls-7"><path class="cls-4" d="M1465.22,483.49l70.52,14.88L1345,548.77l120.27-65.28m-.15-1.06-127.91,69.43,202.91-53.6-75-15.83Z"/></g><polyline class="cls-9" points="1540.07 498.26 1524.72 589.92 1337.16 551.86"/><g class="cls-7"><path class="cls-4" d="M1502.51,361.82l36.17,135.12-72.34-15.26,36.17-119.86m.06-3.65-37.5,124.26,75,15.83-37.5-140.09Z"/></g><g class="cls-10"><path class="cls-4" d="M1540.87,499.56l115.74,36.26L1526,588.32l14.87-88.76m-.8-1.3-15.35,91.66,134.86-54.21-119.51-37.45Z"/></g><g class="cls-7"><path class="cls-4" d="M1653.79,451.12l4.71,83.2L1543,498.12l110.83-47m.92-1.48-114.64,48.62,119.51,37.45-4.87-86.07Z"/></g><g class="cls-7"><path class="cls-4" d="M1504.17,360.3l148.34,89.19-111.77,47.4L1504.17,360.3m-1.6-2.13,37.5,140.09,114.64-48.62-152.14-91.47Z"/></g><g class="cls-8"><line class="cls-3" x1="1465.07" y1="482.43" x2="1385.64" y2="455.37"/><polyline class="cls-3" points="1502.57 358.17 1502.57 358.17 1465.07 482.43"/><line class="cls-3" x1="1590.16" y1="387.32" x2="1502.57" y2="358.17"/><path class="cls-4" d="M1517.33,362l126.24,24.29h-53.25l-73-24.29m-14.76-3.86,87.59,29.15h63.9l-151.49-29.15Z"/><polyline class="cls-3" points="1502.57 358.17 1654.06 387.32 1654.71 449.64"/><path class="cls-4" d="M1653.06,317.58v68.74h-60.69l60.69-68.74m1-2.65-63.9,72.39h63.9V314.93Z"/></g><circle class="cls-11" cx="1502.46" cy="358.74" r="5.67"/><circle class="cls-11" cx="1465.18" cy="482.65" r="5.67"/><circle class="cls-11" cx="1337.18" cy="551.65" r="5.67"/><circle class="cls-11" cx="1277.68" cy="599.43" r="5.67"/><circle class="cls-11" cx="1524.85" cy="589.17" r="5.67"/><circle class="cls-11" cx="1502.59" cy="358.65" r="3.65"/><circle class="cls-11" cx="1338" cy="551.95" r="3.65"/><circle class="cls-11" cx="1524" cy="589.95" r="3.65"/><circle class="cls-11" cx="1277" cy="599.95" r="3.65"/><circle class="cls-11" cx="1443" cy="592.95" r="3.65"/><circle class="cls-11" cx="1540.24" cy="497.56" r="3.65"/></g></svg>