<svg width="49" height="60" viewBox="0 0 49 60" fill="none" xmlns="http://www.w3.org/2000/svg">
<path d="M27.5625 21H44.4062L27.5625 4.5V21ZM6.125 0H30.625L49 18V54C49 55.5913 48.3547 57.1174 47.206 58.2426C46.0574 59.3679 44.4995 60 42.875 60H6.125C4.50055 60 2.94263 59.3679 1.79397 58.2426C0.64531 57.1174 0 55.5913 0 54V6C0 2.67 2.72562 0 6.125 0ZM6.125 54H42.875V30L30.625 42L24.5 36L6.125 54ZM12.25 21C10.6255 21 9.06763 21.6321 7.91897 22.7574C6.77031 23.8826 6.125 25.4087 6.125 27C6.125 28.5913 6.77031 30.1174 7.91897 31.2426C9.06763 32.3679 10.6255 33 12.25 33C13.8745 33 15.4324 32.3679 16.581 31.2426C17.7297 30.1174 18.375 28.5913 18.375 27C18.375 25.4087 17.7297 23.8826 16.581 22.7574C15.4324 21.6321 13.8745 21 12.25 21Z" fill="#3B9CB9"/>
</svg>
