<svg width="68" height="56" viewBox="0 0 68 56" fill="none" xmlns="http://www.w3.org/2000/svg">
<path fill-rule="evenodd" clip-rule="evenodd" d="M13.5863 0.77312C20.3456 -0.579591 29.2355 -0.757134 35.3142 5.31316C35.5104 5.5098 35.6658 5.74318 35.7717 5.99995C35.8776 6.25672 35.9319 6.53184 35.9314 6.80959V53.309C35.9321 53.7276 35.8086 54.137 35.5764 54.4853C35.3442 54.8335 35.0138 55.105 34.6271 55.2653C34.2405 55.4256 33.8149 55.4675 33.4044 55.3856C32.9939 55.3037 32.6169 55.1018 32.3213 54.8055C28.7578 51.2377 23.3808 50.3288 17.6529 50.9164C11.9715 51.5082 6.40847 53.5246 3.06051 55.1986C2.73827 55.3601 2.3801 55.4365 2.02002 55.4205C1.65994 55.4045 1.30993 55.2968 1.00324 55.1074C0.696554 54.9181 0.443383 54.6534 0.267789 54.3387C0.0921955 54.0239 1.20947e-05 53.6695 0 53.309L0 6.80959C1.31608e-05 6.4174 0.109148 6.03294 0.315196 5.69923C0.521244 5.36553 0.816078 5.09573 1.16671 4.92002L2.11361 6.80959L1.16671 4.92002L1.17517 4.9158L1.19208 4.90734L1.24703 4.88198C1.55347 4.72936 1.86355 4.58418 2.17702 4.44658C5.83564 2.80814 9.66306 1.57628 13.5905 0.77312H13.5863ZM4.22722 8.1623V50.0456C7.80345 48.5957 12.4449 47.2049 17.2217 46.7146C22.0534 46.2158 27.3121 46.6173 31.7042 49.0818V7.73113C27.2106 3.80404 20.5823 3.6899 14.4148 4.92425C10.9141 5.64049 7.4991 6.72591 4.22722 8.1623Z" fill="#3B9CB9"/>
<path fill-rule="evenodd" clip-rule="evenodd" d="M54.0492 0.77312C47.2941 -0.579591 38.4 -0.757134 32.3213 5.31316C32.1251 5.5098 31.9697 5.74318 31.8638 5.99995C31.7579 6.25672 31.7036 6.53184 31.7041 6.80959V53.309C31.7034 53.7276 31.8269 54.137 32.0591 54.4853C32.2913 54.8335 32.6217 55.105 33.0084 55.2653C33.395 55.4256 33.8206 55.4675 34.2311 55.3856C34.6416 55.3037 35.0185 55.1018 35.3142 54.8055C38.8777 51.2377 44.2547 50.3288 49.9826 50.9164C55.664 51.5082 61.227 53.5246 64.575 55.1986C64.8972 55.3601 65.2554 55.4365 65.6155 55.4205C65.9756 55.4045 66.3256 55.2968 66.6323 55.1074C66.9389 54.9181 67.1921 54.6534 67.3677 54.3387C67.5433 54.0239 67.6355 53.6695 67.6355 53.309V6.80959C67.6355 6.4174 67.5263 6.03294 67.3203 5.69923C67.1142 5.36553 66.8194 5.09573 66.4688 4.92002L66.4603 4.9158L66.4434 4.90734L66.3885 4.88198L66.1898 4.78475C65.0808 4.26695 63.9543 3.78758 62.8122 3.3475C59.968 2.24696 57.0368 1.38584 54.0492 0.77312ZM63.4083 8.1623V50.0456C59.832 48.5957 55.1905 47.2049 50.4138 46.7146C45.5821 46.2158 40.3234 46.6173 35.9313 49.0818V7.73113C40.4249 3.80404 47.0532 3.6899 53.2207 4.92425C56.7215 5.64043 60.1364 6.72585 63.4083 8.1623Z" fill="#3B9CB9"/>
</svg>
