<svg width="54" height="50" viewBox="0 0 54 50" fill="none" xmlns="http://www.w3.org/2000/svg">
<g clip-path="url(#clip0)">
<path d="M53.8909 16.5867C53.837 15.0201 51.9707 13.8222 48.3187 12.9007C48.4432 12.6295 48.5105 12.3343 48.5161 12.0345V5.52889C48.1752 0.156652 26.7211 0 24.2267 0C21.7322 0 0.340968 0.156652 0 5.52889V5.6579V11.9793C0 13.7116 2.20732 15.0847 5.4824 16.0983C5.43074 16.2565 5.3976 16.4204 5.3837 16.5867V16.7065V23.037C1.85738 23.9585 0.0897284 25.2025 0 26.723V26.8428V33.1918C0 34.4081 1.07674 35.4586 2.82644 36.3064C2.7602 36.493 2.7209 36.6886 2.7098 36.8869H2.69185V37.0067V43.3465C2.69185 46.415 9.43045 48.3225 16.9048 49.2163H17.0663H17.1202C18.5558 49.3822 20.0184 49.5204 21.472 49.6126H21.5617C23.4012 49.7231 25.2137 49.7784 26.9454 49.7784C28.6772 49.7784 30.4538 49.7231 32.3291 49.6034H32.4189C33.8725 49.5112 35.335 49.3822 36.7707 49.2163H36.8245H36.986C44.4604 48.2948 51.19 46.4519 51.199 43.3557V36.9053C51.1362 35.7719 50.194 34.832 48.3456 34.0395C48.4563 33.7777 48.5143 33.4956 48.5161 33.2102V27.1837C51.7374 26.1609 53.8998 24.7971 53.8998 23.0647V16.5867H53.8909ZM46.6049 33.5051L46.2998 33.7815C45.6105 34.3341 44.8375 34.7668 44.0118 35.0624V30.6577C44.9532 30.3402 45.8563 29.9135 46.7036 29.386V33.1733C46.7016 33.2784 46.6705 33.3807 46.6139 33.4682L46.6049 33.5051ZM26.5237 37.7807H25.1239V33.1733H26.0212C26.9185 33.1733 27.8158 33.118 28.7131 33.0812V37.6886H28.1388H26.4878L26.5237 37.7807ZM22.6026 37.7807C22.1898 37.7807 21.7771 37.7807 21.3733 37.7807H21.2208L19.7402 37.7162V33.1088C20.6375 33.1088 21.5348 33.1826 22.4321 33.1918H23.3294V37.7992H22.5757L22.6026 37.7807ZM6.37071 35.7074H6.28996V31.2198C7.12443 31.4502 8.03069 31.6713 8.98181 31.8556V36.3617C8.15631 36.1866 7.40259 35.9931 6.70271 35.7996L6.37071 35.7074ZM25.3124 43.3096H26.0212V47.917C24.783 47.917 23.5896 47.8618 22.4321 47.8065V43.1991C23.3294 43.2451 24.2267 43.2728 25.1239 43.2912L25.3124 43.3096ZM28.7131 43.3096C29.6104 43.3096 30.5076 43.3096 31.4049 43.2175V47.8249C30.2474 47.8894 29.054 47.917 27.8158 47.9355V43.3281H28.7131V43.3096ZM35.8913 42.895V47.5024C34.9941 47.6037 34.0968 47.6775 33.1995 47.7512V43.1438C34.0968 43.0885 34.9941 43.0148 35.8913 42.9226V42.895ZM37.6859 42.6922C38.6131 42.5817 39.5104 42.4527 40.3778 42.3052V46.8389C39.5343 46.9863 38.637 47.1246 37.6859 47.2628V42.6922ZM42.1723 41.9735C43.1324 41.78 44.0297 41.568 44.8642 41.3377V45.7976C44.0566 46.0188 43.1593 46.2584 42.1723 46.4703V41.9735ZM11.6647 41.9735V46.4703C10.6777 46.2492 9.77142 46.0188 8.97284 45.7884V41.3653C9.81628 41.6049 10.7136 41.8168 11.6647 42.0103V41.9735ZM13.4593 42.3882C14.3326 42.5417 15.2299 42.6707 16.1511 42.7752V47.3826C15.2538 47.1706 14.3565 46.9956 13.4593 46.8758V42.3882ZM17.9457 42.9779C18.843 43.0608 19.7402 43.1438 20.6375 43.1991V47.8065C19.7402 47.7327 18.843 47.659 17.9457 47.5577V42.9779ZM15.7204 37.449H15.4422H15.2538V32.8416C16.1511 32.9338 17.0484 33.0075 17.9457 33.072V37.6794C17.2189 37.5412 16.4652 37.4859 15.7384 37.3937L15.7204 37.449ZM13.4593 32.5744V37.1357C12.562 37.0067 11.6647 36.8593 10.7674 36.721V32.1874C11.6647 32.3348 12.562 32.4638 13.4593 32.5744ZM31.1357 37.5596L30.5346 37.6057V32.9983C31.4318 32.943 32.3291 32.86 33.2264 32.7771V37.3845L31.5216 37.5504L31.1357 37.5596ZM34.9941 37.1449V32.5375C35.9272 32.4269 36.8245 32.2979 37.6859 32.1505V36.6842C36.7886 36.8316 35.8913 36.9698 34.9941 37.0988V37.1449ZM39.4805 31.8648C40.4316 31.6713 41.3379 31.4594 42.1723 31.229V35.689C41.3737 35.9101 40.4765 36.1497 39.4805 36.3709V31.8648ZM27.2415 27.6444C26.5686 27.6444 25.9046 27.5984 25.2585 27.5615H25.1239V22.9541C26.0212 23.0002 26.9185 23.0278 27.8158 23.0463H28.7131V27.6537C28.2734 27.6537 27.8158 27.6537 27.412 27.6537L27.2415 27.6444ZM6.28098 14.458V10.0073C7.11546 10.2284 8.02172 10.4588 8.97284 10.6431V15.1492L8.64084 15.0754L7.25902 14.7437L6.28098 14.458ZM22.6205 11.9793H23.3294V16.5867C22.118 16.5867 20.9157 16.5867 19.7402 16.4853V11.8779C20.6375 11.8779 21.5348 11.9516 22.4321 11.97L22.6205 11.9793ZM26.0212 11.9793C26.9185 11.9793 27.8158 11.9332 28.7131 11.8871V16.4945H28.2644H28.2106C27.6094 16.4945 26.9993 16.5498 26.3712 16.559H25.1239V11.9793H25.8597H26.0212ZM46.4883 12.4308L46.1563 12.6888C45.4995 13.1673 44.7807 13.5488 44.0207 13.8222V9.43597C44.9619 9.11785 45.8649 8.69125 46.7126 8.16433V11.9793C46.6953 12.1513 46.619 12.3113 46.4972 12.4308H46.4883ZM34.9941 15.8956V11.3619C35.8913 11.2421 36.7886 11.1131 37.6859 10.9656V15.4993C36.7886 15.6375 35.8913 15.785 34.9941 15.914V15.8956ZM39.4805 15.1215V10.6431C40.4316 10.4496 41.3379 10.2377 42.1723 10.0073V14.4488C41.3737 14.6884 40.4675 14.9188 39.4805 15.1399V15.1215ZM33.1995 11.5554V16.1628C32.3321 16.2549 31.4348 16.3379 30.5076 16.4116V11.8042C31.4498 11.7212 32.356 11.6475 33.1995 11.5554ZM15.2538 16.1628V11.5554C16.1511 11.6475 17.0484 11.7212 17.9457 11.7857V16.3932C17.0484 16.3102 16.1511 16.2273 15.2538 16.1351V16.1628ZM13.4593 11.3895V15.9416L12.9209 15.8771L12.562 15.7942L11.0366 15.5546L10.7674 15.4993V10.9656C11.6647 11.1131 12.562 11.2421 13.4593 11.3619V11.3895ZM23.132 27.4233H22.7731L21.0862 27.2759H20.7362H20.6375V22.6684C21.5348 22.7514 22.4321 22.8251 23.3294 22.8896V27.497L23.132 27.4233ZM17.2009 26.723L16.1511 26.5663V22.0326C17.0484 22.1801 17.9457 22.3091 18.843 22.4196V27.0271L17.2637 26.723H17.2009ZM14.3565 21.7101V26.2069C13.3606 25.9858 12.4633 25.7554 11.6647 25.5066V21.0743C12.4962 21.3077 13.3935 21.5197 14.3565 21.7101ZM9.87012 20.503V24.88C8.86583 24.5927 7.95885 24.0249 7.25005 23.2398L7.17827 23.1476C7.17224 23.111 7.17224 23.0736 7.17827 23.037V19.2405C8.02755 19.7643 8.93024 20.1907 9.87012 20.5122V20.503ZM31.4049 23.037C32.3022 23.037 33.1995 22.991 34.0968 22.9449V27.5523C32.9124 27.6168 31.71 27.6537 30.5076 27.6629V23.037H31.4049ZM43.0696 26.5847L41.8762 26.7875L41.1584 26.898L40.4585 26.9902V22.4381C41.3558 22.3275 42.2531 22.1893 43.1504 22.0511V26.5847H43.0696ZM36.986 27.3772L35.9721 27.4509V22.8435C36.8694 22.779 37.7667 22.7053 38.6639 22.6132V27.2206L37.0847 27.3772H36.986ZM47.2599 25.6448C46.8113 25.7738 46.3626 25.8936 45.8512 26.0134L45.1693 26.1701L44.9449 26.2162V21.7101C45.8961 21.5166 46.8023 21.3047 47.6368 21.0743V25.5343L47.2599 25.6448ZM52.1232 16.6696C52.0424 17.287 50.6517 18.1255 48.1841 18.9088C43.4736 20.245 38.6229 20.9906 33.7379 21.1296H32.7598H31.9523C31.2075 21.1296 30.4538 21.1296 29.6732 21.1296C28.8925 21.1296 28.1388 21.1296 27.3941 21.1296H26.5865C26.2545 21.1296 25.9225 21.1296 25.6085 21.1296C20.7234 20.9906 15.8727 20.245 11.1622 18.9088C8.6857 18.1348 7.30389 17.3054 7.17827 16.6788C7.17827 16.6788 7.17827 16.6788 7.17827 16.6235L7.3667 16.6696C7.72561 16.7617 8.08453 16.8447 8.44344 16.9184C10.238 17.3146 12.212 17.6372 14.3206 17.886C15.7563 18.0518 17.2458 18.1808 18.8071 18.273H18.843C19.9466 18.3467 21.0592 18.3928 22.1898 18.4204L24.2267 18.4296C24.6932 18.4296 25.1778 18.4296 25.6713 18.4296C31.3287 18.4292 36.9645 17.7112 42.4505 16.2918L43.0696 16.1259L43.4106 16.0153L44.3079 15.6836L44.4694 15.6191C44.7206 15.527 44.9629 15.4256 45.1962 15.315L45.4025 15.2229C45.6455 15.1209 45.8822 15.004 46.1114 14.8727L46.3985 14.7068L46.7126 14.5133L46.892 14.4028C50.9298 15.3058 51.9886 16.2826 52.0873 16.6696H52.1232ZM24.2267 1.84296C39.0408 1.84296 46.5331 4.23882 46.6587 5.61182C46.5511 6.23843 45.1693 7.05855 42.7286 7.84181C38.0157 9.17996 33.1615 9.92264 28.2734 10.0534L27.3492 10.1363H26.5327C25.7879 10.1363 25.0342 10.1363 24.2536 10.1363C23.4729 10.1363 22.7282 10.1363 21.9834 10.1363H21.1669C20.8439 10.1363 20.5119 10.1363 20.1979 10.0902C15.3083 9.94748 10.454 9.19242 5.74261 7.84181C3.29303 7.05855 1.92019 6.23843 1.79457 5.61182C1.94711 4.23882 9.43942 1.84296 24.2267 1.84296ZM1.79457 11.9793V8.15511C2.64221 8.68203 3.54525 9.10863 4.48642 9.42676V13.8222C2.74569 13.1864 1.79457 12.5045 1.79457 11.9793ZM6.14639 24.7602H6.20023C8.22841 26.3558 10.6182 27.3959 13.1452 27.7827L13.3695 27.838L14.0784 27.9946C17.4237 28.7062 20.8157 29.1621 24.2267 29.3584C25.447 29.4321 26.6942 29.4782 27.9594 29.5058L29.6104 29.4874C30.2295 29.4874 30.8666 29.4874 31.5126 29.4874C32.688 29.4874 33.8455 29.4137 34.9851 29.3492C38.4714 29.1668 41.9391 28.7108 45.3577 27.9854C44.5082 28.4222 43.6224 28.78 42.7107 29.0543C37.6717 30.4812 32.4769 31.246 27.2505 31.3304H26.6403H26.0212H24.3074C23.5268 31.3304 22.7731 31.3304 22.0283 31.3304H21.2208C20.8888 31.3304 20.5568 31.3304 20.2427 31.3304C15.337 31.1824 10.4674 30.418 5.74261 29.0543C3.26611 28.2711 1.8843 27.4417 1.79457 26.8151C1.91121 26.465 2.81747 25.5988 6.14639 24.7602ZM1.79457 33.1733V29.386C2.64412 29.9093 3.54675 30.3357 4.48642 30.6577V35.0163L3.96599 34.8136C2.55726 34.2607 1.79457 33.6709 1.79457 33.1733ZM4.48642 43.3096V39.5408C5.33536 40.0603 6.23827 40.4807 7.17827 40.794V45.2171C5.43754 44.5536 4.48642 43.8717 4.48642 43.3557V43.3096ZM46.7036 45.1526V40.794C47.6454 40.4814 48.5487 40.0578 49.3955 39.5316V43.3096C49.3955 43.8349 48.4533 44.5076 46.7036 45.1526ZM49.3955 36.8593C49.2968 37.4859 47.9149 38.3152 45.4654 39.0892C40.7602 40.488 35.9053 41.2865 31.0101 41.4667H30.0411H29.2245C28.4798 41.4667 27.7261 41.4667 26.9544 41.4667C26.1827 41.4667 25.42 41.4667 24.6753 41.4667H23.8677H22.8897C17.9998 41.3209 13.1455 40.5628 8.43447 39.209C6.05666 38.4534 4.68382 37.6517 4.48642 37.0343L5.3837 37.32H5.47343L6.21817 37.5412L6.50531 37.6241L6.95395 37.7439C10.8558 38.7064 14.8355 39.2986 18.843 39.5131C20.2337 39.5961 21.6604 39.6514 23.0961 39.6698H24.2267C24.7202 39.6698 25.2226 39.6698 25.7341 39.6698C27.0531 39.6698 28.3452 39.5961 29.6104 39.5223C31.1537 39.4302 32.6432 39.292 34.0968 39.1261C34.1052 39.1302 34.1144 39.1323 34.1237 39.1323C34.133 39.1323 34.1422 39.1302 34.1506 39.1261C35.7478 38.9418 37.2642 38.7114 38.637 38.435L39.5343 38.2691H39.7227C41.987 37.8627 44.1835 37.1273 46.246 36.0852L46.4883 35.9378C46.5879 35.883 46.6838 35.8215 46.7754 35.7535L47.0446 35.5876C48.8391 36.2327 49.3147 36.8132 49.3685 37.0436L49.3955 36.8593ZM49.3955 24.8247V20.4016C50.3351 20.0796 51.2378 19.6532 52.0873 19.13V23.037C52.1053 23.5715 51.1452 24.2534 49.4044 24.9353L49.3955 24.8247Z" fill="#78DF6C"/>
</g>
<defs>
<clipPath id="clip0">
<rect width="53.8998" height="49.8522" fill="white"/>
</clipPath>
</defs>
</svg>
