<svg width="60" height="69" viewBox="0 0 60 69" fill="none" xmlns="http://www.w3.org/2000/svg">
<path d="M58.354 29.4854C59.098 29.4854 59.701 28.882 59.701 28.1377C59.701 27.3934 59.098 26.7901 58.354 26.7901H53.248V23.1211H58.354C59.098 23.1211 59.701 22.5177 59.701 21.7734C59.701 21.0291 59.098 20.4258 58.354 20.4258H53.248V18.2208C53.248 17.8636 53.107 17.521 52.854 17.2683L48.957 13.3681C48.704 13.1151 48.361 12.9729 48.004 12.9729H45.798V7.87233C45.798 7.12802 45.195 6.52468 44.451 6.52468C43.706 6.52468 43.103 7.12802 43.103 7.87233V12.9729H39.433V7.87233C39.433 7.12802 38.83 6.52468 38.086 6.52468C37.341 6.52468 36.738 7.12802 36.738 7.87233V12.9729H33.072V8.14348C33.072 3.65309 29.419 0 24.928 0C21.253 0 18.06 2.48346 17.086 5.9336C14.285 6.21822 11.691 7.45645 9.688 9.48373C7.427 11.7734 6.181 14.8071 6.181 18.026C6.181 19.6234 6.497 21.2055 7.101 22.6722C5.21 23.6774 3.587 25.123 2.356 26.9096C0.815003 29.1478 0 31.7718 0 34.4981C0 39.5169 2.744 44.0185 7.101 46.3278C6.497 47.7918 6.182 49.3726 6.182 50.9702C6.182 54.1891 7.427 57.2228 9.688 59.5125C11.691 61.5398 14.286 62.778 17.086 63.0626C18.06 66.5151 21.254 69 24.928 69C29.419 69 33.072 65.3469 33.072 60.8565V56.0233H36.738V61.1277C36.738 61.872 37.342 62.4753 38.086 62.4753C38.83 62.4753 39.433 61.872 39.433 61.1277V56.0233H43.103V61.1277C43.103 61.872 43.707 62.4753 44.451 62.4753C45.195 62.4753 45.798 61.872 45.798 61.1277V56.0233H48.004C48.361 56.0233 48.704 55.8814 48.957 55.6286L52.854 51.7321C53.107 51.4794 53.249 51.1365 53.249 50.7791V48.5703H58.354C59.098 48.5703 59.701 47.967 59.701 47.2227C59.701 46.4784 59.098 45.875 58.354 45.875H53.248V42.2099H58.354C59.098 42.2099 59.701 41.6066 59.701 40.8623C59.701 40.118 59.098 39.5146 58.354 39.5146H53.248V35.8458H58.354C59.098 35.8458 59.701 35.2424 59.701 34.4981C59.701 33.7538 59.098 33.1505 58.354 33.1505H53.248V29.4854H58.354ZM24.928 66.3047C22.692 66.3047 20.724 64.9299 19.895 62.9447C20.878 62.7687 21.837 62.4697 22.758 62.0468C24.098 61.4318 25.296 60.5902 26.319 59.5452C26.839 59.0133 26.83 58.1601 26.299 57.6394C25.767 57.1188 24.914 57.1278 24.393 57.6596C23.601 58.4682 22.673 59.1201 21.634 59.5969C20.537 60.1003 19.373 60.3794 18.176 60.428C13.045 60.3433 8.877 56.1079 8.877 50.9698C8.877 49.3463 9.294 47.7467 10.083 46.3435C10.273 46.0053 10.308 45.6016 10.18 45.2357C10.051 44.8697 9.771 44.577 9.411 44.4324C5.331 42.794 2.695 38.8944 2.695 34.4981C2.695 30.1006 5.331 26.2026 9.41 24.5678C10.211 24.1345 10.436 23.4976 10.084 22.6575C9.294 21.2502 8.877 19.6487 8.877 18.0261C8.877 12.888 13.045 8.65263 18.176 8.56799C19.366 8.61637 20.53 8.89574 21.634 9.39896C22.674 9.87657 23.602 10.529 24.391 11.3381C24.655 11.609 25.005 11.7451 25.356 11.7451C25.695 11.7451 26.034 11.6179 26.296 11.3625C26.829 10.843 26.84 9.98964 26.321 9.45677C25.3 8.40951 24.101 7.56588 22.755 6.94798C21.831 6.52656 20.873 6.22819 19.895 6.05232C20.724 4.06871 22.692 2.69531 24.928 2.69531C27.932 2.69531 30.377 5.13942 30.377 8.14348V24.6662H26.181L22.606 21.0911C22.987 20.3964 23.19 19.6137 23.19 18.7995C23.19 17.5225 22.692 16.3219 21.789 15.4188C19.925 13.555 16.892 13.5549 15.027 15.4188C14.124 16.3219 13.627 17.5225 13.627 18.7994C13.627 20.0763 14.124 21.2769 15.027 22.18C15.959 23.1119 17.184 23.5779 18.408 23.5779C19.198 23.5779 19.987 23.3828 20.698 22.9951L24.67 26.9665C24.958 27.2237 25.275 27.3554 25.623 27.3612H30.377V33.1502H21.931C21.348 31.1699 19.513 29.7197 17.344 29.7197C14.709 29.7197 12.566 31.8632 12.566 34.4978C12.566 37.1345 14.709 39.2797 17.344 39.2797C19.513 39.2797 21.348 37.8279 21.932 35.8455H30.377V41.6345H25.623C25.587 41.6345 25.556 41.6364 25.527 41.6391C25.215 41.6612 24.909 41.7906 24.67 42.0295L20.698 46.0041C18.884 45.0156 16.56 45.2866 15.027 46.8195C14.123 47.7235 13.626 48.925 13.627 50.203C13.627 51.4791 14.125 52.6779 15.027 53.577C15.959 54.5092 17.184 54.9751 18.408 54.9751C19.632 54.9751 20.856 54.5093 21.787 53.5784C22.69 52.6779 23.188 51.4793 23.189 50.2032C23.19 49.3878 22.987 48.604 22.605 47.9084L26.181 44.3299H30.377V60.8564C30.377 63.8606 27.932 66.3047 24.928 66.3047ZM20.494 18.7997C20.494 19.3567 20.277 19.8804 19.883 20.2743C19.07 21.0876 17.747 21.0876 16.933 20.2743C16.539 19.8804 16.322 19.3567 16.322 18.7997C16.322 18.2427 16.539 17.7189 16.933 17.3251C17.747 16.5119 19.07 16.5119 19.883 17.3251C20.277 17.7189 20.494 18.2425 20.494 18.7997ZM19.431 34.4981C19.431 35.6486 18.495 36.5847 17.344 36.5847C16.196 36.5847 15.261 35.6486 15.261 34.4981C15.261 33.3498 16.196 32.4153 17.344 32.4153C18.495 32.4153 19.431 33.3496 19.431 34.4981ZM20.494 50.2014C20.494 50.7568 20.277 51.2783 19.883 51.6712C19.07 52.4843 17.746 52.4845 16.932 51.6698C16.539 51.2783 16.323 50.7568 16.322 50.2014C16.322 49.6442 16.539 49.12 16.933 48.7257C17.746 47.9127 19.07 47.9126 19.883 48.7256C19.883 48.7257 19.883 48.7259 19.883 48.7261L19.884 48.7263C20.278 49.1206 20.495 49.6444 20.494 50.2014ZM50.553 50.2208L47.446 53.328H33.072V49.3343H45.211C45.955 49.3343 46.559 48.731 46.559 47.9867V40.5452C46.559 39.8009 45.955 39.1975 45.211 39.1975C44.467 39.1975 43.863 39.8009 43.863 40.5452V46.639H33.072V22.361H43.863V28.4395C43.863 29.1838 44.467 29.7871 45.211 29.7871C45.955 29.7871 46.559 29.1838 46.559 28.4395V21.0133C46.559 20.269 45.955 19.6657 45.211 19.6657H33.072V15.6683H47.445L50.553 18.7788V50.2208Z" fill="#3B9CB9"/>
</svg>
