<svg width="60" height="62" viewBox="0 0 60 62" fill="none" xmlns="http://www.w3.org/2000/svg">
<path d="M38.7196 47.7403C38.4244 45.8158 37.6388 44.0055 36.4425 42.4928C35.2462 40.98 33.6815 39.8185 31.907 39.1258L33.6402 32.9011C33.68 32.7583 33.687 32.6078 33.6605 32.4617C33.634 32.3156 33.5749 32.1778 33.4877 32.0592C33.4005 31.9405 33.2876 31.8443 33.158 31.778C33.0284 31.7117 32.8856 31.6772 32.7407 31.6772H23.3862C23.2414 31.6772 23.0986 31.7117 22.9689 31.778C22.8393 31.8443 22.7265 31.9405 22.6393 32.0592C22.5521 32.1778 22.4929 32.3156 22.4665 32.4617C22.44 32.6078 22.447 32.7583 22.4868 32.9011L24.2199 39.1261C22.4454 39.8187 20.8808 40.9802 19.6845 42.493C18.4881 44.0058 17.7026 45.8161 17.4074 47.7406L16.7679 51.8971C16.6414 52.7193 16.6901 53.5597 16.9105 54.3607C17.1309 55.1617 17.5179 55.9041 18.0448 56.5369C18.5718 57.1697 19.2261 57.6777 19.9627 58.0261C20.6993 58.3745 21.5008 58.5549 22.3119 58.5549H33.8151C34.6262 58.5549 35.4277 58.3745 36.1643 58.0261C36.9009 57.6777 37.5552 57.1697 38.0821 56.5369C38.609 55.9041 38.996 55.1617 39.2165 54.3607C39.4369 53.5597 39.4856 52.7193 39.3591 51.8971L38.7196 47.7403ZM24.6264 33.5971H31.5006L30.1077 38.5998C28.7577 38.3289 27.3693 38.3289 26.0193 38.5998L24.6264 33.5971ZM36.6599 55.2897C36.3088 55.7118 35.8727 56.0507 35.3815 56.283C34.8903 56.5153 34.3559 56.6354 33.8151 56.635H22.3119C21.7711 56.6351 21.2367 56.5149 20.7456 56.2827C20.2545 56.0505 19.8182 55.7118 19.4669 55.2899C19.1156 54.8681 18.8575 54.3731 18.7105 53.8391C18.5635 53.3051 18.5311 52.7447 18.6154 52.1966L19.255 48.0398C19.5328 46.2327 20.3322 44.5526 21.55 43.2164C22.7678 41.8803 24.3481 40.9496 26.0866 40.5445L22.6255 45.5175L24.1479 46.6334L27.128 42.352V47.0359H28.9989V42.352L31.9795 46.6339L33.502 45.518L30.0408 40.5449C31.7792 40.9501 33.3594 41.8808 34.5771 43.2168C35.7949 44.5528 36.5942 46.2329 36.8721 48.0398L37.5117 52.1966C37.5963 52.7447 37.5639 53.3051 37.4169 53.8392C37.2698 54.3732 37.0116 54.8681 36.6599 55.2897Z" fill="#DADADA"/>
<path d="M53.4047 39.2087C53.1678 36.7808 52.2507 34.4753 50.7643 32.5708C49.2778 30.6663 47.2857 29.2443 45.0285 28.4768L46.7367 22.3421C46.7765 22.1992 46.7834 22.0488 46.757 21.9027C46.7305 21.7566 46.6714 21.6188 46.5842 21.5001C46.497 21.3815 46.3841 21.2852 46.2545 21.2189C46.1249 21.1526 45.982 21.1182 45.8372 21.1182H36.4827C36.3379 21.1182 36.1951 21.1526 36.0654 21.2189C35.9358 21.2852 35.823 21.3815 35.7358 21.5001C35.6486 21.6188 35.5894 21.7566 35.563 21.9027C35.5365 22.0488 35.5434 22.1992 35.5833 22.3421L37.2912 28.4762C36.1443 28.8656 35.0598 29.4267 34.0728 30.1414L35.1509 31.7103C36.2829 30.8897 37.5639 30.3103 38.9179 30.0065L34.837 34.8921L36.2575 36.1414L40.2245 31.3924V37.4367H42.0954V31.3924L46.0624 36.1416L47.4829 34.8922L43.4013 30.0058C45.553 30.4851 47.5008 31.6531 48.9641 33.3413C50.4274 35.0295 51.3305 37.1509 51.5435 39.3996L52.8117 52.4132C52.8638 52.947 52.8062 53.4862 52.6427 53.9958C52.4793 54.5054 52.2136 54.9742 51.8627 55.372C51.5119 55.7698 51.0837 56.0877 50.6057 56.3052C50.1278 56.5228 49.6108 56.6351 49.0879 56.635H40.2245V58.5549H49.0879C49.8721 58.5549 50.6476 58.3862 51.3643 58.0599C52.0811 57.7335 52.7233 57.2567 53.2495 56.66C53.7757 56.0634 54.1742 55.3603 54.4193 54.5959C54.6645 53.8316 54.7508 53.023 54.6728 52.2223L53.4047 39.2087ZM37.7229 23.038H44.5971L43.2108 28.0165C41.8532 27.7787 40.4663 27.7779 39.1084 28.0141L37.7229 23.038Z" fill="#DADADA"/>
<path d="M51.9278 28.2552C50.7861 27.1943 49.5015 26.3075 48.1135 25.6221L47.3025 27.3521C49.4082 28.3922 51.2309 29.95 52.6088 31.8869C53.9867 33.8239 54.877 36.0801 55.2006 38.4551L57.0536 38.1902C56.5318 34.3647 54.7177 30.8486 51.9278 28.2552Z" fill="#DADADA"/>
<path d="M8.04091 55.3596C7.69023 54.9581 7.42579 54.4854 7.26475 53.9721C7.10371 53.4589 7.04968 52.9166 7.10616 52.3805L9.60277 28.8113C9.98026 25.2034 11.5321 21.8315 14.0075 19.2403C16.4829 16.6491 19.7373 14.9899 23.2451 14.5309L17.9707 21.4894L19.4476 22.6679L24.3219 16.2366V24.9579H26.1928V16.2366L31.0671 22.6681L32.5439 21.4895L27.2717 14.5337C30.8899 15.019 34.2335 16.7722 36.7366 19.4966L38.0999 18.1819C36.0169 15.9136 33.3996 14.2342 30.5003 13.3054L33.0927 4.10713C33.1331 3.96412 33.1405 3.81341 33.1144 3.66693C33.0883 3.52046 33.0293 3.38223 32.9421 3.26318C32.8549 3.14413 32.742 3.04752 32.6121 2.981C32.4823 2.91447 32.3392 2.87985 32.1941 2.87988H18.1623C18.0187 2.87991 17.8771 2.91386 17.7483 2.97908C17.6196 3.04431 17.5072 3.13907 17.4199 3.25603C17.3326 3.37299 17.2726 3.509 17.2448 3.65353C17.2169 3.79806 17.2219 3.94724 17.2592 4.0895L19.7031 13.3943C16.4971 14.4839 13.6645 16.4975 11.5436 19.1946C9.42272 21.8916 8.10324 25.1581 7.74274 28.6039L5.24625 52.1731C5.16107 52.9772 5.2419 53.7907 5.48347 54.5606C5.72505 55.3305 6.12195 56.0396 6.64833 56.6417C7.17471 57.2437 7.81877 57.7253 8.53857 58.0549C9.25836 58.3846 10.0378 58.5549 10.826 58.555H15.9028V56.6351H10.826C10.3006 56.6348 9.78107 56.5211 9.30125 56.3013C8.82144 56.0816 8.39203 55.7607 8.04091 55.3596ZM19.3833 4.79971H30.9499L28.6868 12.8295C27.5577 12.5971 26.4089 12.4797 25.2573 12.479C23.9967 12.4785 22.7397 12.6159 21.5075 12.8889L19.3833 4.79971Z" fill="#DADADA"/>
<path d="M5.88272 28.3964C6.17515 25.6527 7.01618 23.0004 8.35319 20.6054C9.69021 18.2105 11.4945 16.1244 13.6531 14.4776L12.5395 12.9351C10.1736 14.7396 8.19606 17.0258 6.73055 19.6505C5.26505 22.2752 4.34312 25.182 4.02245 28.1891L3.46118 33.4936L5.32039 33.7009L5.88272 28.3964Z" fill="#DADADA"/>
<path d="M3.25751 35.4131L3.0542 37.3329L4.91415 37.5403L5.11746 35.6205L3.25751 35.4131Z" fill="#DADADA"/>
</svg>
