<svg width="55" height="57" viewBox="0 0 55 57" fill="none" xmlns="http://www.w3.org/2000/svg">
<path d="M52.3631 27.3066H45.4958C45.2681 27.3066 45.0498 27.3994 44.8888 27.5646C44.7278 27.7298 44.6374 27.9539 44.6374 28.1875V36.1152H38.6285C38.4008 36.1152 38.1825 36.208 38.0215 36.3732C37.8605 36.5384 37.7701 36.7625 37.7701 36.9961V43.1621H31.7612C31.5335 43.1621 31.3152 43.2549 31.1542 43.4201C30.9932 43.5853 30.9028 43.8094 30.9028 44.043V51.9707H29.186V43.1621C29.186 42.6668 28.9526 41.7402 27.3892 41.0986C26.4796 40.7251 25.2885 40.5195 24.0355 40.5195C22.7825 40.5195 21.5914 40.7251 20.6818 41.0986C20.6544 41.1098 20.6284 41.1213 20.6019 41.1327V38.7578C20.6019 38.2626 20.3684 37.3359 18.8051 36.6943C17.8955 36.3208 16.7044 36.1152 15.4514 36.1152C14.1983 36.1152 13.0073 36.3208 12.0976 36.6943C12.0703 36.7055 12.0443 36.717 12.0177 36.7284V29.9492C12.0177 29.454 11.7843 28.5273 10.221 27.8857C9.31136 27.5122 8.1203 27.3066 6.86727 27.3066C5.61423 27.3066 4.42317 27.5122 3.51352 27.8857C1.95021 28.5273 1.7168 29.454 1.7168 29.9492V51.9707C1.7168 52.466 1.95021 53.3926 3.51352 54.0343C4.42317 54.4077 5.61423 54.6133 6.86727 54.6133C8.1203 54.6133 9.31136 54.4077 10.221 54.0343C10.5545 53.9026 10.8698 53.7271 11.1593 53.5122C11.4488 53.7271 11.7642 53.9026 12.0976 54.0343C13.0073 54.4077 14.1983 54.6133 15.4514 54.6133C16.7044 54.6133 17.8955 54.4077 18.8051 54.0343C19.1386 53.9026 19.454 53.7271 19.7434 53.5122C20.0329 53.7271 20.3483 53.9026 20.6818 54.0343C21.5914 54.4077 22.7825 54.6133 24.0355 54.6133C25.2885 54.6133 26.4796 54.4077 27.3892 54.0343C27.5996 53.9489 27.8035 53.8481 27.9996 53.7324H52.3631C52.5907 53.7324 52.8091 53.6396 52.9701 53.4744C53.1311 53.3092 53.2215 53.0852 53.2215 52.8516V28.1875C53.2215 27.9539 53.1311 27.7298 52.9701 27.5646C52.8091 27.3994 52.5907 27.3066 52.3631 27.3066ZM3.43362 45.1915C3.46016 45.2029 3.48616 45.2144 3.51352 45.2257C4.42317 45.5991 5.61423 45.8047 6.86727 45.8047C8.1203 45.8047 9.31136 45.5991 10.221 45.2257C10.2484 45.2144 10.2744 45.2029 10.3009 45.1915V47.5331C10.1518 47.8058 8.96408 48.4473 6.86727 48.4473C4.77045 48.4473 3.58274 47.8058 3.43362 47.5331V45.1915ZM3.43362 40.7872C3.46016 40.7986 3.48616 40.8101 3.51352 40.8214C4.42317 41.1948 5.61423 41.4004 6.86727 41.4004C8.1203 41.4004 9.31136 41.1948 10.221 40.8214C10.2484 40.8101 10.2744 40.7986 10.3009 40.7872V43.1288C10.1518 43.4015 8.96408 44.043 6.86727 44.043C4.77045 44.043 3.58274 43.4015 3.43362 43.1288V40.7872ZM3.43362 36.3829C3.46016 36.3943 3.48616 36.4058 3.51352 36.4171C4.42317 36.7905 5.61423 36.9961 6.86727 36.9961C8.1203 36.9961 9.31136 36.7905 10.221 36.4171C10.2484 36.4058 10.2744 36.3943 10.3009 36.3829V38.7245C10.1518 38.9972 8.96408 39.6387 6.86727 39.6387C4.77045 39.6387 3.58274 38.9972 3.43362 38.7245V36.3829ZM3.43362 31.9786C3.46016 31.99 3.48616 32.0015 3.51352 32.0128C4.42317 32.3862 5.61423 32.5918 6.86727 32.5918C8.1203 32.5918 9.31136 32.3862 10.221 32.0128C10.2484 32.0015 10.2744 31.99 10.3009 31.9786V34.3202C10.1518 34.5929 8.96408 35.2344 6.86727 35.2344C4.77045 35.2344 3.58274 34.5929 3.43362 34.3202V31.9786ZM15.4514 44.043C13.3546 44.043 12.1669 43.4015 12.0177 43.1288V40.7872C12.0443 40.7986 12.0703 40.8101 12.0976 40.8214C13.0073 41.1948 14.1983 41.4004 15.4514 41.4004C16.7044 41.4004 17.8955 41.1948 18.8051 40.8214C18.8325 40.8101 18.8585 40.7986 18.885 40.7872V43.1288C18.7359 43.4015 17.5482 44.043 15.4514 44.043ZM12.0177 45.1915C12.0443 45.2029 12.0703 45.2144 12.0976 45.2257C13.0073 45.5991 14.1983 45.8047 15.4514 45.8047C16.7044 45.8047 17.8955 45.5991 18.8051 45.2257C18.8325 45.2144 18.8585 45.2029 18.885 45.1915V47.5331C18.7359 47.8058 17.5482 48.4473 15.4514 48.4473C13.3546 48.4473 12.1669 47.8058 12.0177 47.5331V45.1915ZM20.6019 45.1915C20.6284 45.2029 20.6544 45.2144 20.6818 45.2257C21.5914 45.5991 22.7825 45.8047 24.0355 45.8047C25.2885 45.8047 26.4796 45.5991 27.3892 45.2257C27.4166 45.2144 27.4426 45.2029 27.4691 45.1915V47.5331C27.32 47.8058 26.1323 48.4473 24.0355 48.4473C21.9387 48.4473 20.751 47.8058 20.6019 47.5331V45.1915ZM24.0355 42.2813C26.0555 42.2813 27.2295 42.8759 27.4464 43.1633C27.2232 43.452 26.0479 44.043 24.0355 44.043C22.0231 44.043 20.8478 43.452 20.6246 43.1633C20.8415 42.8759 22.0155 42.2813 24.0355 42.2813ZM15.4514 37.877C17.4714 37.877 18.6454 38.4716 18.8623 38.7591C18.6391 39.0477 17.4638 39.6387 15.4514 39.6387C13.4361 39.6387 12.2604 39.046 12.0396 38.7578C12.2604 38.4696 13.4361 37.877 15.4514 37.877ZM6.86727 29.0684C8.88725 29.0684 10.0613 29.663 10.2782 29.9505C10.055 30.2391 8.87969 30.8301 6.86727 30.8301C4.85484 30.8301 3.67958 30.2391 3.45637 29.9505C3.67323 29.663 4.84728 29.0684 6.86727 29.0684ZM6.86727 52.8516C4.77415 52.8516 3.58614 52.2121 3.43362 51.9386V49.5958C3.46016 49.6072 3.48616 49.6187 3.51352 49.63C4.42317 50.0034 5.61423 50.209 6.86727 50.209C8.1203 50.209 9.31136 50.0034 10.221 49.63C10.2484 49.6187 10.2744 49.6072 10.3009 49.5958V51.9386C10.1484 52.2121 8.96038 52.8516 6.86727 52.8516ZM15.4514 52.8516C13.3546 52.8516 12.1669 52.2101 12.0177 51.9374V49.5958C12.0443 49.6072 12.0703 49.6187 12.0976 49.63C13.0073 50.0034 14.1983 50.209 15.4514 50.209C16.7044 50.209 17.8955 50.0034 18.8051 49.63C18.8325 49.6187 18.8585 49.6072 18.885 49.5958V51.9386C18.7325 52.2121 17.5445 52.8516 15.4514 52.8516ZM24.0355 52.8516C21.9424 52.8516 20.7544 52.2121 20.6019 51.9386V49.5958C20.6284 49.6072 20.6544 49.6187 20.6818 49.63C21.5914 50.0034 22.7825 50.209 24.0355 50.209C25.2885 50.209 26.4796 50.0034 27.3892 49.63C27.4166 49.6187 27.4426 49.6072 27.4691 49.5958V51.9386C27.3166 52.2121 26.1286 52.8516 24.0355 52.8516ZM32.6196 44.9238H37.7701V51.9707H32.6196V44.9238ZM39.4869 37.877H44.6374V51.9707H39.4869V37.877ZM46.3542 51.9707V29.0684H51.5047V51.9707H46.3542Z" fill="#4F4FFE"/>
<path d="M25.7525 36.9961H24.0356V38.7578H25.7525V36.9961Z" fill="#4F4FFE"/>
<path d="M27.4692 36.9961V38.7578H31.7613C31.989 38.7578 32.2073 38.665 32.3683 38.4999L49.7879 20.6247V22.0215H51.5048V18.498C51.5048 18.2644 51.4143 18.0404 51.2533 17.8752C51.0924 17.71 50.874 17.6172 50.6464 17.6172H47.2127V19.3789H48.5739L31.4057 36.9961H27.4692Z" fill="#4F4FFE"/>
<path d="M38.8566 7.35743C35.0555 3.75391 30.0689 1.75548 24.8939 1.76173C13.534 1.76173 4.29199 11.2454 4.29199 22.9024C4.292 23.824 4.35 24.7447 4.46562 25.6587L6.16809 25.4312C6.06202 24.5926 6.00882 23.7479 6.00882 22.9024C6.00882 22.6071 6.01636 22.3136 6.02916 22.0215H9.87167L12.1894 25.1926C12.2693 25.302 12.373 25.3908 12.4922 25.4519C12.6114 25.5131 12.7428 25.5449 12.8761 25.5449H19.2574L21.1842 28.8403L18.37 31.0062C18.2633 31.0883 18.1768 31.1947 18.1172 31.317C18.0576 31.4393 18.0266 31.5742 18.0266 31.711V34.3535H19.7434V32.1514L22.8337 29.7731C23.0036 29.6424 23.1202 29.4516 23.161 29.2377C23.2019 29.0239 23.164 28.802 23.0547 28.6152L20.4795 24.2109C20.4032 24.0804 20.2953 23.9725 20.1663 23.8976C20.0373 23.8226 19.8916 23.7832 19.7434 23.7832H13.3053L10.9876 20.6122C10.9076 20.5027 10.804 20.4139 10.6848 20.3528C10.5656 20.2916 10.4341 20.2598 10.3009 20.2598H6.18514C6.63475 16.8989 7.94027 13.7192 9.96996 11.0415L12.8761 12.8308V15.8555C12.8761 16.0891 12.9666 16.3132 13.1275 16.4783C13.2885 16.6435 13.5069 16.7363 13.7345 16.7363H17.671L20.8532 20.0018C20.9936 20.1458 21.1782 20.2354 21.3756 20.2555C21.5731 20.2756 21.7713 20.2248 21.9364 20.1118L27.0868 16.5884C27.2044 16.508 27.3008 16.399 27.3675 16.2711C27.4342 16.1433 27.4691 16.0005 27.4691 15.8555V10.9352L32.9101 5.35195C34.244 5.99417 35.4999 6.79473 36.652 7.73722L32.07 11.6554C31.9308 11.7745 31.8318 11.9357 31.7874 12.116C31.7429 12.2963 31.7553 12.4865 31.8226 12.6592L33.3602 16.6039L31.332 19.3789H27.4691C27.2834 19.3789 27.1027 19.4407 26.9541 19.5551L23.5204 22.1976C23.3449 22.3327 23.2264 22.5317 23.1894 22.7536C23.1523 22.9756 23.1995 23.2036 23.3212 23.391L26.7549 28.6761C26.8333 28.7968 26.9395 28.8957 27.0641 28.9642C27.1887 29.0326 27.3278 29.0684 27.4691 29.0684H30.0443V34.3535H31.7612V28.1875C31.7612 27.9539 31.6707 27.7299 31.5097 27.5647C31.3488 27.3995 31.1304 27.3067 30.9028 27.3067H27.9285L25.2002 23.1071L27.7552 21.1406H31.7612C31.8944 21.1406 32.0259 21.1088 32.1451 21.0476C32.2643 20.9865 32.3679 20.8977 32.4479 20.7883L35.0231 17.2648C35.1115 17.1439 35.1681 17.0017 35.1874 16.8519C35.2067 16.702 35.1881 16.5496 35.1334 16.4093L33.6482 12.599L37.9603 8.9117C41.272 12.1585 43.3158 16.5335 43.7085 21.2162L45.419 21.0651C44.9789 15.8145 42.6375 10.9238 38.8566 7.35743ZM26.0037 9.94743C25.8427 10.1126 25.7523 10.3367 25.7523 10.5703V15.3841L21.5696 18.2455L18.6336 15.2326C18.4726 15.0674 18.2542 14.9746 18.0266 14.9746H14.5929V12.332C14.5929 12.1799 14.5545 12.0304 14.4815 11.898C14.4085 11.7657 14.3033 11.6549 14.1761 11.5767L11.0993 9.68229C13.6051 6.92526 16.8405 4.97849 20.4088 4.08071C23.9771 3.18293 27.7231 3.37315 31.1875 4.62805L26.0037 9.94743Z" fill="#4F4FFE"/>
</svg>
