<svg width="67" height="36" viewBox="0 0 67 36" fill="none" xmlns="http://www.w3.org/2000/svg">
<path d="M62.8512 13.6929L57.5316 11.2126L52.8344 3.56682C52.1676 2.46926 51.236 1.56491 50.1288 0.940392C49.0216 0.315879 47.7759 -0.00787398 46.5111 0.000145435H26.4373C25.291 -0.00146907 24.1599 0.267867 23.1325 0.787067C22.1052 1.30627 21.2094 2.06124 20.5155 2.99287L14.4933 11.1921L4.45639 14.0209C3.20585 14.3641 2.09697 15.1098 1.29422 16.1474C0.491471 17.185 0.0376251 18.4591 2.235e-07 19.7809V23.737C-0.000428073 25.3434 0.614722 26.8861 1.71388 28.0354C2.81304 29.1846 4.30894 29.849 5.88164 29.8864H6.74481C7.16397 31.5398 8.10903 33.0041 9.43156 34.0495C10.7541 35.0949 12.3792 35.6621 14.0517 35.6621C15.7242 35.6621 17.3493 35.0949 18.6718 34.0495C19.9944 33.0041 20.9394 31.5398 21.3586 29.8864H44.1625C44.5816 31.5398 45.5267 33.0041 46.8492 34.0495C48.1717 35.0949 49.7969 35.6621 51.4693 35.6621C53.1418 35.6621 54.7669 35.0949 56.0895 34.0495C57.412 33.0041 58.3571 31.5398 58.7762 29.8864H60.4022C61.9749 29.849 63.4708 29.1846 64.5699 28.0354C65.6691 26.8861 66.2843 25.3434 66.2838 23.737V19.2274C66.2806 18.0683 65.9567 16.9338 65.3493 15.9545C64.742 14.9753 63.876 14.1913 62.8512 13.6929ZM14.0517 32.7972C13.0988 32.7972 12.1674 32.5086 11.3751 31.9681C10.5828 31.4275 9.96534 30.6592 9.60069 29.7603C9.23605 28.8613 9.14065 27.8722 9.32654 26.9179C9.51243 25.9636 9.97128 25.087 10.645 24.399C11.3188 23.711 12.1773 23.2424 13.1118 23.0526C14.0463 22.8628 15.015 22.9602 15.8954 23.3325C16.7757 23.7049 17.5281 24.3354 18.0575 25.1445C18.5869 25.9535 18.8694 26.9046 18.8694 27.8776C18.8694 29.1824 18.3618 30.4337 17.4583 31.3563C16.5548 32.2789 15.3294 32.7972 14.0517 32.7972ZM51.4894 32.7972C50.5366 32.7972 49.6051 32.5086 48.8128 31.9681C48.0206 31.4275 47.4031 30.6592 47.0384 29.7603C46.6738 28.8613 46.5784 27.8722 46.7643 26.9179C46.9501 25.9636 47.409 25.087 48.0828 24.399C48.7565 23.711 49.615 23.2424 50.5495 23.0526C51.4841 22.8628 52.4527 22.9602 53.3331 23.3325C54.2134 23.7049 54.9658 24.3354 55.4952 25.1445C56.0246 25.9535 56.3071 26.9046 56.3071 27.8776C56.3018 29.1807 55.7926 30.4289 54.8902 31.3503C53.9879 32.2717 52.7655 32.7918 51.4894 32.7972ZM60.4223 27.0577H58.997C58.8047 25.1612 57.9308 23.4048 56.5441 22.1279C55.1575 20.851 53.3566 20.1443 51.4894 20.1443C49.6222 20.1443 47.8213 20.851 46.4347 22.1279C45.048 23.4048 44.1741 25.1612 43.9818 27.0577H21.5593C21.367 25.1612 20.4931 23.4048 19.1064 22.1279C17.7198 20.851 15.9189 20.1443 14.0517 20.1443C12.1845 20.1443 10.3836 20.851 8.99695 22.1279C7.61032 23.4048 6.7364 25.1612 6.54407 27.0577H5.86156C5.43976 27.0497 5.02363 26.9569 4.63695 26.7847C4.25026 26.6124 3.9006 26.364 3.60794 26.0538C3.31527 25.7435 3.08533 25.3774 2.93126 24.9764C2.77718 24.5753 2.70199 24.1472 2.70997 23.7165V19.7809C2.70267 19.0607 2.92917 18.3584 3.35408 17.7836C3.77898 17.2087 4.37837 16.7938 5.05861 16.6036L15.6375 13.6519C15.921 13.5651 16.1727 13.3938 16.3602 13.16L22.6834 4.67372C23.1363 4.0883 23.7126 3.61472 24.3694 3.28821C25.0263 2.9617 25.7468 2.79069 26.4774 2.78789H46.5512C47.3536 2.78049 48.1444 2.98401 48.8475 3.3789C49.5506 3.77378 50.1424 4.34674 50.566 5.04269L55.4841 13.0575C55.6273 13.2857 55.8285 13.4699 56.0662 13.5904L61.7471 16.2347C62.3066 16.4981 62.7801 16.9203 63.1111 17.451C63.4422 17.9816 63.6167 18.5983 63.614 19.2274V23.737C63.6193 24.1694 63.5408 24.5986 63.383 24.9999C63.2253 25.4013 62.9913 25.7667 62.6947 26.0754C62.398 26.384 62.0445 26.6297 61.6545 26.7983C61.2645 26.9669 60.8458 27.055 60.4223 27.0577Z" fill="#DADADA"/>
</svg>
