<svg width="51" height="46" viewBox="0 0 51 46" fill="none" xmlns="http://www.w3.org/2000/svg">
<g clip-path="url(#clip0)">
<path d="M16.2144 30.4251H42.9131C43.2422 30.4383 43.5661 30.3372 43.833 30.1378C44.0999 29.9385 44.2944 29.6524 44.3855 29.3254L50.2219 8.02782C50.3154 7.64651 50.2623 7.24262 50.0738 6.90088C49.8853 6.55915 49.5759 6.30615 49.2107 6.19498C49.0754 6.17588 48.9381 6.17588 48.8027 6.19498H12.826L11.7794 1.19134C11.7067 0.853516 11.5248 0.551374 11.2635 0.334784C11.0023 0.118195 10.6774 0.000102937 10.3424 0L1.47242 0C1.08191 0 0.707394 0.160274 0.431262 0.445565C0.155129 0.730855 0 1.11779 0 1.52125C0 1.92471 0.155129 2.31165 0.431262 2.59694C0.707394 2.88223 1.08191 3.04251 1.47242 3.04251H9.15384L14.4758 27.7491C13.5365 28.1634 12.7652 28.9011 12.293 29.8368C11.8209 30.7724 11.6772 31.8482 11.8863 32.881C12.0954 33.9138 12.6445 34.8399 13.4401 35.5015C14.2357 36.1632 15.2286 36.5196 16.2498 36.5101H42.8598C43.2503 36.5101 43.6249 36.3498 43.901 36.0645C44.1771 35.7792 44.3322 35.3923 44.3322 34.9888C44.3322 34.5854 44.1771 34.1984 43.901 33.9131C43.6249 33.6278 43.2503 33.4676 42.8598 33.4676H16.2498C16.0564 33.4605 15.8663 33.4141 15.6903 33.331C15.5142 33.2479 15.3558 33.1298 15.224 32.9834C15.0922 32.837 14.9896 32.6652 14.9221 32.4778C14.8546 32.2904 14.8235 32.0911 14.8306 31.8913C14.8396 31.5054 14.9921 31.1378 15.2563 30.8648C15.5205 30.5918 15.8763 30.4344 16.2498 30.4251H16.2144ZM46.8513 9.16417L41.8132 27.4925H17.4029L13.4824 9.16417H46.8513Z" fill="#FF00FF"/>
<path d="M14.7598 41.0555C14.7598 41.9581 15.0189 42.8405 15.5042 43.591C15.9896 44.3415 16.6795 44.9264 17.4866 45.2719C18.2938 45.6173 19.182 45.7076 20.0388 45.5316C20.8957 45.3555 21.6828 44.9208 22.3005 44.2826C22.9183 43.6443 23.339 42.8311 23.5094 41.9458C23.6799 41.0606 23.5924 40.1429 23.2581 39.309C22.9237 38.4751 22.3576 37.7623 21.6312 37.2609C20.9047 36.7594 20.0507 36.4917 19.1771 36.4917C18.5963 36.4893 18.0209 36.6057 17.4839 36.8342C16.9469 37.0627 16.459 37.3988 16.0484 37.823C15.6377 38.2473 15.3124 38.7514 15.0913 39.3062C14.8701 39.8609 14.7575 40.4555 14.7598 41.0555ZM19.1771 39.5342C19.4683 39.5342 19.753 39.6235 19.9951 39.7906C20.2372 39.9578 20.426 40.1954 20.5374 40.4733C20.6488 40.7513 20.678 41.0572 20.6212 41.3523C20.5644 41.6474 20.4241 41.9184 20.2182 42.1312C20.0123 42.3439 19.7499 42.4888 19.4643 42.5475C19.1787 42.6062 18.8826 42.5761 18.6136 42.4609C18.3445 42.3458 18.1146 42.1508 17.9528 41.9007C17.791 41.6505 17.7046 41.3564 17.7046 41.0555C17.7046 40.652 17.8598 40.2651 18.1359 39.9798C18.412 39.6945 18.7865 39.5342 19.1771 39.5342Z" fill="#FF00FF"/>
<path d="M35.5156 41.0559C35.5156 41.9586 35.7747 42.8409 36.2601 43.5914C36.7454 44.3419 37.4353 44.9269 38.2425 45.2723C39.0496 45.6177 39.9378 45.7081 40.7946 45.532C41.6515 45.3559 42.4386 44.9213 43.0564 44.283C43.6741 43.6448 44.0948 42.8316 44.2653 41.9463C44.4357 41.061 44.3482 40.1434 44.0139 39.3095C43.6796 38.4756 43.1134 37.7628 42.387 37.2613C41.6606 36.7598 40.8065 36.4922 39.9329 36.4922C38.7614 36.4922 37.6378 36.973 36.8094 37.8289C35.981 38.6847 35.5156 39.8456 35.5156 41.0559ZM39.9329 39.5347C40.2241 39.5347 40.5088 39.6239 40.7509 39.7911C40.9931 39.9582 41.1818 40.1958 41.2932 40.4738C41.4047 40.7518 41.4338 41.0576 41.377 41.3527C41.3202 41.6478 41.18 41.9189 40.974 42.1316C40.7681 42.3444 40.5058 42.4893 40.2201 42.548C39.9345 42.6067 39.6385 42.5765 39.3694 42.4614C39.1004 42.3463 38.8704 42.1513 38.7086 41.9011C38.5468 41.6509 38.4605 41.3568 38.4605 41.0559C38.4651 40.654 38.6217 40.2698 38.8968 39.9855C39.172 39.7013 39.5438 39.5394 39.9329 39.5347Z" fill="#FF00FF"/>
</g>
<defs>
<clipPath id="clip0">
<rect width="50.2397" height="45.6193" fill="white"/>
</clipPath>
</defs>
</svg>
