<svg width="52" height="48" viewBox="0 0 52 48" fill="none" xmlns="http://www.w3.org/2000/svg">
<g clip-path="url(#clip0)">
<path d="M48.6469 0H3.12495C2.29764 0.00489379 1.50558 0.342406 0.920577 0.939326C0.335571 1.53625 0.00479612 2.34444 0 3.1886V35.261C0.00479612 36.1052 0.335571 36.9134 0.920577 37.5103C1.50558 38.1072 2.29764 38.4447 3.12495 38.4496H18.7132V40.7618C18.7156 41.2678 18.62 41.7693 18.4319 42.2375C18.2438 42.7057 17.9668 43.1314 17.617 43.49C17.2672 43.8487 16.8514 44.1333 16.3935 44.3275C15.9355 44.5217 15.4445 44.6217 14.9486 44.6217H11.513C11.221 44.6586 10.9523 44.8031 10.7574 45.028C10.5626 45.253 10.455 45.5428 10.455 45.843C10.455 46.1433 10.5626 46.4331 10.7574 46.6581C10.9523 46.883 11.221 47.0275 11.513 47.0644H40.2041C40.3737 47.0858 40.5458 47.0702 40.7091 47.0187C40.8723 46.9671 41.0229 46.8807 41.151 46.7652C41.2791 46.6497 41.3816 46.5078 41.4518 46.3488C41.522 46.1898 41.5584 46.0174 41.5584 45.843C41.5584 45.6687 41.522 45.4963 41.4518 45.3373C41.3816 45.1783 41.2791 45.0364 41.151 44.9209C41.0229 44.8054 40.8723 44.719 40.7091 44.6674C40.5458 44.6159 40.3737 44.6003 40.2041 44.6217H36.8233C35.82 44.6217 34.8578 44.215 34.1484 43.4912C33.439 42.7673 33.0404 41.7855 33.0404 40.7618V38.4496H48.6469C49.4742 38.4447 50.2663 38.1072 50.8513 37.5103C51.4363 36.9134 51.7671 36.1052 51.7719 35.261V3.1886C51.7671 2.34444 51.4363 1.53625 50.8513 0.939326C50.2663 0.342406 49.4742 0.00489379 48.6469 0V0ZM19.8096 44.6217C20.6509 43.5182 21.1075 42.1599 21.1071 40.7618V38.4496H30.6647V40.7618C30.6644 42.1599 31.121 43.5182 31.9622 44.6217H19.8096ZM49.3779 35.2983C49.3779 35.4961 49.3009 35.6858 49.1638 35.8257C49.0267 35.9656 48.8408 36.0442 48.6469 36.0442H3.12495C2.93108 36.0442 2.74516 35.9656 2.60807 35.8257C2.47098 35.6858 2.39397 35.4961 2.39397 35.2983V28.8465H49.3414L49.3779 35.2983ZM49.3779 26.4597H2.39397V3.1886C2.39397 2.99078 2.47098 2.80106 2.60807 2.66119C2.74516 2.52131 2.93108 2.44272 3.12495 2.44272H48.6469C48.8408 2.44272 49.0267 2.52131 49.1638 2.66119C49.3009 2.80106 49.3779 2.99078 49.3779 3.1886V26.4225V26.4597Z" fill="#EDE750"/>
</g>
<defs>
<clipPath id="clip0">
<rect width="51.7719" height="47.0644" fill="white"/>
</clipPath>
</defs>
</svg>
