<svg width="49" height="51" viewBox="0 0 49 51" fill="none" xmlns="http://www.w3.org/2000/svg">
<g clip-path="url(#clip0)">
<path d="M8.58189 38.721C7.89878 38.721 7.2421 38.8959 6.6595 39.2245C3.59053 35.1875 1.90601 30.1725 1.90601 25.035C1.90601 12.3089 11.9952 1.95586 24.397 1.95586C25.9046 1.95586 27.4116 2.1098 28.8761 2.4135C29.3913 2.52046 29.8946 2.17818 29.9988 1.64873C30.1031 1.11927 29.7695 0.603565 29.2536 0.496222C27.6651 0.166935 26.0312 0 24.397 0C17.8804 0 11.7536 2.60412 7.14568 7.33255C2.53775 12.061 0 18.348 0 25.035C0 30.66 1.86134 36.1493 5.2501 40.55C4.8138 41.2189 4.57927 42.0051 4.57927 42.8283C4.57927 43.9254 4.99584 44.9568 5.75191 45.7323C6.50762 46.5081 7.51274 46.9356 8.58189 46.9356C9.65105 46.9356 10.6562 46.5081 11.4122 45.7323C12.1683 44.9568 12.5845 43.925 12.5845 42.8279C12.5845 41.7312 12.1683 40.6994 11.4122 39.9239C10.6562 39.1481 9.65105 38.721 8.58189 38.721ZM10.0643 44.3494C9.66854 44.7559 9.14179 44.9797 8.58189 44.9797C8.022 44.9797 7.49562 44.7559 7.09952 44.3494C6.70343 43.943 6.48528 43.4028 6.48528 42.8283C6.48528 42.2534 6.70343 41.7132 7.09952 41.3068C7.49524 40.9003 8.022 40.6768 8.58189 40.6768C9.14179 40.6768 9.66817 40.9007 10.0643 41.3068C10.4604 41.7132 10.6785 42.2534 10.6785 42.8283C10.6785 43.4028 10.4604 43.943 10.0643 44.3494Z" fill="#4985D4"/>
<path d="M43.5431 9.5187C44.5791 7.92383 44.4127 5.74336 43.0423 4.33721C42.2863 3.56174 41.2811 3.13428 40.212 3.13428C39.1428 3.13428 38.1377 3.56174 37.3816 4.33721C36.6256 5.11305 36.2094 6.14446 36.2094 7.24158C36.2094 8.33869 36.6256 9.3701 37.3816 10.1459C38.1377 10.9218 39.1428 11.3489 40.212 11.3489C40.8951 11.3489 41.5518 11.1739 42.1344 10.8454C45.2034 14.8828 46.8879 19.8973 46.8879 25.0349C46.8879 37.761 36.7987 48.114 24.3969 48.114C22.9041 48.114 21.4113 47.9631 19.9606 47.6652C19.4447 47.5593 18.9425 47.9028 18.839 48.4322C18.7359 48.9621 19.0705 49.477 19.5865 49.5832C21.1601 49.906 22.7787 50.0699 24.3969 50.0699C30.9135 50.0699 37.0403 47.4658 41.6482 42.7373C46.2561 38.0089 48.7939 31.7219 48.7939 25.0349C48.7939 19.4095 46.9322 13.9198 43.5431 9.5187ZM38.7296 8.7631C38.3335 8.35664 38.1154 7.81649 38.1154 7.24158C38.1154 6.66704 38.3335 6.12689 38.7296 5.72044C39.1253 5.31399 39.6521 5.09013 40.212 5.09013C40.7719 5.09013 41.2986 5.31399 41.6947 5.72044C42.5119 6.55932 42.5119 7.92422 41.6947 8.7631C41.2986 9.16917 40.7719 9.39302 40.212 9.39302C39.6517 9.39302 39.1253 9.16917 38.7296 8.7631Z" fill="#4985D4"/>
<path d="M20.4643 41.8555C20.4643 42.3956 20.8913 42.8334 21.4174 42.8334H27.3762C27.9026 42.8334 28.3293 42.3956 28.3293 41.8555V39.9596C29.5823 39.6135 30.7803 39.1039 31.906 38.4385L33.2104 39.777C33.3891 39.9604 33.6315 40.0635 33.8846 40.0635C34.137 40.0635 34.3797 39.9604 34.5584 39.7766L38.7703 35.4516C39.1421 35.0696 39.1421 34.4503 38.7703 34.0687L37.4673 32.7317C38.1158 31.5765 38.6124 30.3472 38.9497 29.0614H40.7902C41.3166 29.0614 41.7432 28.6236 41.7432 28.0835V21.9688C41.7432 21.4286 41.3166 20.9908 40.7902 20.9908H38.9493C38.612 19.7054 38.1158 18.4761 37.4673 17.3209L38.7632 15.9912C38.9419 15.8078 39.0424 15.5588 39.0424 15.2994C39.042 15.04 38.9415 14.7909 38.7628 14.6076L34.5476 10.2856C34.1757 9.90396 33.5723 9.90396 33.2 10.286L31.906 11.6142C30.7803 10.9487 29.5823 10.4391 28.3293 10.0931V8.21474C28.3293 7.67459 27.9026 7.23682 27.3762 7.23682H21.4174C20.8913 7.23682 20.4643 7.67459 20.4643 8.21474V10.0934C19.2117 10.4391 18.0137 10.9487 16.888 11.6142L15.5936 10.286C15.2217 9.90434 14.6182 9.90396 14.246 10.2856L10.0312 14.6079C9.8521 14.7913 9.75159 15.04 9.75159 15.2994C9.75159 15.5588 9.8521 15.8078 10.0308 15.9912L11.3267 17.3209C10.6782 18.4761 10.1816 19.705 9.84428 20.9908H8.00714C7.48075 20.9908 7.05413 21.4286 7.05413 21.9684L7.05078 28.0831C7.05041 28.3425 7.15092 28.5916 7.32961 28.7749C7.5083 28.9583 7.75065 29.0614 8.00379 29.0614H9.84428C10.1816 30.3472 10.6782 31.5765 11.3267 32.7317L10.0237 34.0687C9.65182 34.4503 9.65145 35.0696 10.0237 35.4516L14.2356 39.7766C14.4142 39.96 14.6566 40.0635 14.9094 40.0635H14.9097C15.1625 40.0635 15.4048 39.9604 15.5835 39.777L16.8876 38.4385C18.0137 39.1039 19.2117 39.6135 20.4643 39.9596V41.8555ZM17.2613 36.3817C16.8842 36.1315 16.388 36.1858 16.0701 36.5116L14.9097 37.7023L12.0451 34.7605L13.2044 33.5706C13.5219 33.2447 13.5748 32.7355 13.3309 32.3486C12.4669 30.9764 11.8594 29.4725 11.5258 27.878C11.4313 27.4276 11.0434 27.1056 10.594 27.1056H8.95717L8.9594 22.9467H10.594C11.0434 22.9467 11.4313 22.625 11.5258 22.1743C11.8594 20.5802 12.4669 19.0762 13.3309 17.7041C13.5748 17.3171 13.5219 16.8079 13.2044 16.4821L12.0526 15.2998L14.9194 12.3602L16.0701 13.5414C16.388 13.8672 16.8839 13.9211 17.2613 13.6713C18.5982 12.7846 20.0638 12.1612 21.6176 11.8189C22.0565 11.7219 22.3704 11.3235 22.3704 10.8628V9.19267H26.4232V10.8624C26.4232 11.3235 26.7367 11.7219 27.176 11.8186C28.7294 12.1612 30.1954 12.7843 31.5322 13.6709C31.9094 13.9211 32.4056 13.8672 32.7231 13.541L33.8742 12.3602L36.741 15.2998L35.5892 16.4817C35.2713 16.8079 35.2188 17.3171 35.4626 17.7041C36.3267 19.0762 36.9339 20.5802 37.2678 22.1743C37.362 22.625 37.7502 22.9467 38.1996 22.9467H39.8372V27.1056H38.1996C37.7502 27.1056 37.3623 27.4276 37.2678 27.878C36.9342 29.4721 36.3267 30.9764 35.4626 32.3482C35.2188 32.7355 35.2717 33.2447 35.5892 33.5706L36.7485 34.7601L33.8839 37.7019L32.7235 36.5116C32.4056 36.1854 31.9094 36.1315 31.5322 36.3817C30.1951 37.2684 28.7294 37.8914 27.176 38.2341C26.7367 38.3311 26.4232 38.7292 26.4232 39.1902V40.8775H22.3704V39.1902C22.3704 38.7295 22.0565 38.3311 21.6176 38.2341C20.0642 37.8918 18.5985 37.2684 17.2613 36.3817Z" fill="#4985D4"/>
<path d="M32.2716 25.0351C32.2716 20.5794 28.7392 16.9546 24.397 16.9546C20.0549 16.9546 16.5225 20.5794 16.5225 25.0351C16.5225 29.4908 20.0549 33.1156 24.397 33.1156C28.7392 33.1156 32.2716 29.4908 32.2716 25.0351ZM18.4285 25.0351C18.4285 21.6578 21.1058 18.9104 24.397 18.9104C27.6883 18.9104 30.3656 21.6582 30.3656 25.0351C30.3656 28.412 27.6883 31.1598 24.397 31.1598C21.1058 31.1598 18.4285 28.4124 18.4285 25.0351Z" fill="#4985D4"/>
<path d="M33.172 3.6987C33.4229 3.6987 33.6686 3.59403 33.8458 3.4122C34.023 3.22922 34.125 2.9771 34.125 2.71963C34.125 2.46369 34.0234 2.21118 33.8458 2.0282C33.6686 1.84637 33.4229 1.7417 33.172 1.7417C32.9203 1.7417 32.6758 1.84637 32.4986 2.0282C32.321 2.21118 32.219 2.46254 32.219 2.71963C32.219 2.97786 32.321 3.22922 32.4986 3.4122C32.6758 3.59403 32.9203 3.6987 33.172 3.6987Z" fill="#4985D4"/>
<path d="M15.6635 46.3887C15.4129 46.3887 15.1668 46.4933 14.9897 46.6752C14.8125 46.857 14.7104 47.1095 14.7104 47.3666C14.7104 47.6248 14.8125 47.8762 14.9897 48.058C15.1668 48.2399 15.4129 48.3445 15.6635 48.3445C15.914 48.3445 16.1601 48.2399 16.3373 48.058C16.5145 47.8762 16.6165 47.6237 16.6165 47.3666C16.6165 47.1095 16.5145 46.857 16.3373 46.6752C16.1601 46.4933 15.914 46.3887 15.6635 46.3887Z" fill="#4985D4"/>
</g>
<defs>
<clipPath id="clip0">
<rect width="48.7939" height="50.0699" fill="white"/>
</clipPath>
</defs>
</svg>
