<svg width="39" height="56" viewBox="0 0 39 56" fill="none" xmlns="http://www.w3.org/2000/svg">
<g clip-path="url(#clip0)">
<path d="M38.1654 0.758218C38.0746 0.529261 37.9172 0.334017 37.7145 0.198603C37.5117 0.0631899 37.2732 -0.00593466 37.0309 0.000476971H21.4449C21.2935 -0.00457942 21.1425 0.0208173 21.0007 0.0752151C20.8589 0.129613 20.729 0.211945 20.6185 0.317505C20.5079 0.423064 20.4189 0.549781 20.3565 0.690411C20.294 0.831041 20.2594 0.982826 20.2546 1.13709V4.92579H17.9669V1.13709C17.9623 0.979477 17.9265 0.824435 17.8617 0.681209C17.797 0.537983 17.7046 0.409505 17.59 0.303436C17.4755 0.197366 17.3411 0.115877 17.195 0.0638269C17.0488 0.011777 16.8939 -0.00976784 16.7394 0.000476971H1.20928C0.954125 -0.0253419 0.697703 0.0347957 0.479331 0.171668C0.26096 0.308539 0.0926965 0.514589 0.000343785 0.758218C-0.0816452 0.982192 -0.0896849 1.22729 -0.0225561 1.45634C0.0445728 1.68538 0.183208 1.88589 0.372323 2.02743L11.3271 10.2489V20.5732C11.3388 20.7343 11.3819 20.8914 11.454 21.0353C11.5262 21.1792 11.6258 21.307 11.7471 21.4111C11.8684 21.5152 12.0089 21.5936 12.1603 21.6417C12.3118 21.6897 12.4711 21.7064 12.629 21.6908C12.9143 21.6729 13.1833 21.5494 13.3854 21.3435C13.5875 21.1377 13.7088 20.8637 13.7264 20.5732V9.71851C13.7264 9.54472 13.686 9.37341 13.6084 9.21863C13.5308 9.06386 13.4182 8.93004 13.28 8.82816L4.63148 2.2737H15.5677V6.06241C15.5822 6.37564 15.7171 6.67047 15.9433 6.88317C16.1696 7.09586 16.4689 7.20932 16.7766 7.19902H21.4449C21.7526 7.20932 22.052 7.09586 22.2782 6.88317C22.5044 6.67047 22.6394 6.37564 22.6539 6.06241V2.2737H33.59L24.9415 8.82816C24.8033 8.93004 24.6908 9.06386 24.6132 9.21863C24.5356 9.37341 24.4951 9.54472 24.4952 9.71851V14.4923L17.2416 17.4285C16.9713 17.5313 16.7506 17.7366 16.6258 18.0015C16.5009 18.2664 16.4817 18.5702 16.572 18.8493C16.7158 19.131 16.9568 19.3487 17.2485 19.4606C17.5403 19.5725 17.8624 19.5707 18.1529 19.4555L26.1691 16.2919C26.3785 16.2122 26.5597 16.0703 26.689 15.8846C26.8184 15.6988 26.8899 15.4777 26.8944 15.25V10.2679L37.7748 2.02743C37.9672 1.88846 38.1096 1.68909 38.1801 1.45986C38.2506 1.23063 38.2455 0.984174 38.1654 0.758218Z" fill="white"/>
<path d="M25.8524 20.0997C25.6924 20.0118 25.5134 19.9658 25.3316 19.9658C25.1498 19.9658 24.9709 20.0118 24.8108 20.0997L12.5355 25.4228C12.3364 25.5165 12.1677 25.6661 12.0491 25.854C11.9305 26.0419 11.867 26.2603 11.866 26.4837V30.1398C11.8659 30.443 11.9829 30.7341 12.1917 30.9503C12.4004 31.1664 12.6842 31.2904 12.9819 31.2953C13.1296 31.3219 13.2806 31.3219 13.4283 31.2953L25.685 25.9533C25.887 25.869 26.0591 25.7243 26.1787 25.5382C26.2982 25.3522 26.3596 25.1336 26.3546 24.9114V21.0469C26.3595 20.8581 26.3157 20.6712 26.2276 20.505C26.1395 20.3388 26.0101 20.199 25.8524 20.0997ZM24.1227 23.8884L14.0978 28.4159V27.2225L24.1785 22.7329L24.1227 23.8884Z" fill="white"/>
<path d="M25.8524 28.0935C25.7002 27.9907 25.5253 27.9282 25.3434 27.9117C25.1615 27.8951 24.9785 27.9251 24.8108 27.9988L12.5355 33.3219C12.3364 33.4156 12.1677 33.5651 12.0491 33.753C11.9305 33.9409 11.867 34.1594 11.866 34.3828V38.0389C11.8659 38.3421 11.9829 38.6332 12.1917 38.8493C12.4004 39.0655 12.6842 39.1894 12.9819 39.1944C13.1351 39.1902 13.2862 39.1582 13.4283 39.0997L25.685 33.7576C25.887 33.6733 26.0591 33.5286 26.1787 33.3426C26.2982 33.1566 26.3596 32.938 26.3546 32.7157V29.0407C26.3595 28.8519 26.3157 28.665 26.2276 28.4988C26.1395 28.3326 26.0101 28.1928 25.8524 28.0935ZM24.1227 31.8822L14.0978 36.2392V35.0458L24.1785 30.7645L24.1227 31.8822Z" fill="white"/>
<path d="M25.2388 37.0537C24.9428 37.0537 24.659 37.1735 24.4497 37.3866C24.2404 37.5998 24.1228 37.8889 24.1228 38.1903V49.689L19.0825 53.4778L14.098 50.049V44.3659L19.9381 41.6759C20.0736 41.6175 20.1965 41.5324 20.2998 41.4255C20.4031 41.3187 20.4847 41.1922 20.54 41.0532C20.5952 40.9142 20.6231 40.7656 20.6219 40.6156C20.6208 40.4657 20.5906 40.3175 20.5332 40.1794C20.4758 40.0413 20.3923 39.9161 20.2874 39.8109C20.1825 39.7058 20.0583 39.6226 19.9218 39.5664C19.7854 39.5101 19.6394 39.4817 19.4922 39.4829C19.345 39.484 19.1995 39.5147 19.0639 39.5732L12.5543 42.4147C12.3503 42.5036 12.1764 42.6515 12.0541 42.8401C11.9318 43.0286 11.8664 43.2496 11.8661 43.4756V50.5794C11.863 50.7679 11.9076 50.954 11.9955 51.1199C12.0835 51.2858 12.2118 51.4258 12.3683 51.5266L18.5059 55.6941C18.6928 55.8313 18.9173 55.9051 19.1476 55.9051C19.3779 55.9051 19.6024 55.8313 19.7893 55.6941L25.9269 51.1477C26.0681 51.0399 26.1821 50.8996 26.2597 50.7383C26.3373 50.5769 26.3762 50.3991 26.3733 50.2195V38.2093C26.3758 38.06 26.3493 37.9117 26.2955 37.7728C26.2417 37.634 26.1616 37.5073 26.0597 37.4C25.9578 37.2927 25.8361 37.2068 25.7016 37.1474C25.5672 37.088 25.4225 37.0562 25.276 37.0537H25.2388Z" fill="white"/>
</g>
<defs>
<clipPath id="clip0">
<rect width="39" height="56" fill="white"/>
</clipPath>
</defs>
</svg>
