<svg width="38" height="57" viewBox="0 0 38 57" fill="none" xmlns="http://www.w3.org/2000/svg">
<path d="M32.9007 40.3521L24.7864 15.2921V5.33065C25.4328 5.23293 26.02 4.89037 26.4323 4.3705C26.8446 3.85062 27.0521 3.19116 27.0138 2.52213C26.9756 1.85309 26.6943 1.22304 26.2256 0.756178C25.7569 0.289317 25.1347 0.0195274 24.4816 0H12.7094C12.0563 0.0195274 11.4341 0.289317 10.9654 0.756178C10.4966 1.22304 10.2154 1.85309 10.1772 2.52213C10.1389 3.19116 10.3464 3.85062 10.7587 4.3705C11.171 4.89037 11.7582 5.23293 12.4045 5.33065V15.2921L4.29027 40.3521C3.82835 41.8354 3.95103 43.4452 4.63204 44.8367C5.31305 46.2283 6.49823 47.291 7.93371 47.7972C8.51466 47.993 9.12213 48.0935 9.73366 48.095H27.4573C28.9721 48.0757 30.4196 47.4498 31.4908 46.3509C32.5621 45.2521 33.1722 43.7673 33.191 42.2134C33.1896 41.5861 33.0917 40.9629 32.9007 40.367V40.3521ZM12.1578 2.68021C12.1578 2.53015 12.2159 2.38623 12.3193 2.28012C12.4228 2.17401 12.5631 2.11439 12.7094 2.11439H24.4816C24.554 2.11439 24.6258 2.12903 24.6927 2.15746C24.7596 2.1859 24.8204 2.22758 24.8716 2.28012C24.9229 2.33266 24.9635 2.39503 24.9912 2.46368C25.0189 2.53233 25.0332 2.60591 25.0332 2.68021C25.0332 2.75452 25.0189 2.8281 24.9912 2.89675C24.9635 2.96539 24.9229 3.02777 24.8716 3.08031C24.8204 3.13285 24.7596 3.17453 24.6927 3.20297C24.6258 3.2314 24.554 3.24604 24.4816 3.24604H12.7094C12.5631 3.24604 12.4228 3.18642 12.3193 3.08031C12.2159 2.9742 12.1578 2.83028 12.1578 2.68021ZM30.4476 44.3724C30.1053 44.8572 29.6558 45.2516 29.1359 45.5234C28.6161 45.7952 28.0408 45.9366 27.4573 45.9359H9.80624C8.8309 45.932 7.89683 45.5318 7.20852 44.8229C6.52022 44.1141 6.13376 43.1543 6.13377 42.1538C6.13149 41.7487 6.19527 41.3461 6.32247 40.9626L14.4077 15.7984C14.4228 15.6847 14.4228 15.5695 14.4077 15.4559V5.36043H22.6962V15.4559C22.6743 15.569 22.6743 15.6853 22.6962 15.7984L30.854 41.0073C31.0417 41.5742 31.0923 42.1795 31.0012 42.7709C30.9102 43.3624 30.6803 43.9222 30.3314 44.4022L30.4476 44.3724Z" fill="white"/>
<path d="M25.599 27.8146C25.5309 27.612 25.4043 27.4355 25.2361 27.3084C24.1295 26.4591 22.7992 25.9714 21.4185 25.9087C20.0903 25.9635 18.8096 26.4308 17.746 27.2488C17.0971 27.7863 16.2975 28.0965 15.4642 28.134C14.631 28.1715 13.8079 27.9344 13.1155 27.4573C13.0028 27.3761 12.8753 27.319 12.7406 27.2893C12.6059 27.2596 12.4668 27.2579 12.3315 27.2843C12.1962 27.3107 12.0674 27.3646 11.9527 27.4429C11.8381 27.5212 11.7399 27.6223 11.664 27.7402C11.6168 27.8254 11.5779 27.9152 11.5478 28.0082L7.19314 41.4093C7.08198 41.7485 7.0374 42.1069 7.06199 42.4638C7.08657 42.8208 7.17983 43.1692 7.33638 43.489C7.49292 43.8088 7.70966 44.0936 7.97408 44.327C8.2385 44.5604 8.54536 44.7378 8.87696 44.8489C9.14439 44.937 9.42348 44.9822 9.70436 44.9829H27.457C27.8139 44.9871 28.1678 44.9171 28.4976 44.7772C28.8273 44.6372 29.126 44.4302 29.3756 44.1686C29.6252 43.907 29.8205 43.5963 29.9498 43.2551C30.0791 42.9139 30.1397 42.5494 30.1279 42.1836C30.1282 41.8954 30.0841 41.6089 29.9973 41.3348L25.599 27.8146ZM27.9361 42.5558C27.883 42.6355 27.8114 42.7004 27.7278 42.7446C27.6442 42.7888 27.5511 42.8109 27.457 42.8089H9.80597C9.71009 42.8095 9.61544 42.7869 9.52968 42.7429C9.44393 42.6989 9.3695 42.6348 9.31243 42.5558C9.26667 42.4716 9.24265 42.3768 9.24265 42.2803C9.24265 42.1839 9.26667 42.0891 9.31243 42.0049L13.101 29.7801C14.0772 30.1679 15.1357 30.2853 16.1702 30.1207C17.2046 29.956 18.1787 29.515 18.9944 28.842C19.722 28.2884 20.5998 27.9813 21.5056 27.9635C22.3127 28.0178 23.0903 28.2957 23.7555 28.7676L28.0232 41.9602C28.0594 42.0514 28.0704 42.151 28.055 42.2482C28.0397 42.3454 27.9985 42.4364 27.9361 42.5111V42.5558Z" fill="white"/>
</svg>
