<svg width="52" height="45" viewBox="0 0 52 45" fill="none" xmlns="http://www.w3.org/2000/svg">
<path d="M36.6175 0H31.2217C31.2217 1.46205 30.655 2.86423 29.6462 3.89806C28.6375 4.93188 27.2693 5.51268 25.8427 5.51268C24.4161 5.51268 23.0479 4.93188 22.0392 3.89806C21.0304 2.86423 20.4637 1.46205 20.4637 0H15.0345L0 8.83399L4.3099 20.9722L10.7748 18.8321V44.1357H40.9274V18.8321L47.3755 21.0406L51.6854 8.90247L36.6175 0ZM46.0725 18.1987L41.5956 16.675L38.7557 15.6992V41.9272H12.9297V15.6992L10.023 16.6579L5.56278 18.1987L2.6394 9.82696L15.6526 2.2085H18.6094C19.1994 4.1588 20.5161 5.79196 22.2738 6.75351C24.0314 7.71507 26.0882 7.92744 27.9977 7.34454C29.18 6.97541 30.2555 6.31385 31.1295 5.41817C32.0035 4.52249 32.649 3.4202 33.0092 2.2085H35.9827L48.9959 9.82696L46.0725 18.1987Z" fill="white"/>
</svg>
