<svg width="56" height="58" viewBox="0 0 56 58" fill="none" xmlns="http://www.w3.org/2000/svg">
<path d="M50.9758 14.2158H50.4123C50.0792 13.0153 49.6138 11.8634 49.0223 10.7744L49.4228 10.3633C49.8812 9.89319 50.1334 9.26624 50.1334 8.59784C50.1334 7.92944 49.8812 7.3026 49.4225 6.83197L46.7536 4.09653C46.2953 3.62333 45.6836 3.36284 45.031 3.36284C44.3786 3.36284 43.7667 3.62333 43.3107 4.09419L42.9106 4.50477C41.8486 3.89586 40.7257 3.41743 39.5565 3.07571V2.49756C39.5566 1.12043 38.4648 0 37.1227 0H33.3493C32.0073 0 30.9154 1.12043 30.9154 2.49756V3.07571C29.7464 3.41732 28.6229 3.89586 27.5587 4.50521L27.1604 4.09653C26.7019 3.62333 26.0902 3.36284 25.4377 3.36295C24.7853 3.36295 24.1735 3.62356 23.7175 4.0943L21.0491 6.83252C20.5908 7.3026 20.3386 7.92955 20.3386 8.59795C20.3386 9.26635 20.5908 9.89319 21.049 10.3633L21.4495 10.7743C20.8554 11.8666 20.3899 13.0187 20.0586 14.2158H19.493C18.151 14.2158 17.0591 15.3362 17.0591 16.7133V20.5887C17.0591 21.9658 18.151 23.0863 19.493 23.0863H20.0586C20.3899 24.2832 20.8554 25.4353 21.4495 26.5278L21.049 26.9388C20.5907 27.4089 20.3385 28.0358 20.3385 28.7042C20.3385 29.3725 20.5907 29.9995 21.0489 30.4695L23.7152 33.2055C24.1735 33.6787 24.7851 33.9392 25.4376 33.9392H25.4377C26.0902 33.9392 26.702 33.6787 27.1581 33.2079L27.5586 32.7968C28.6239 33.4067 29.7474 33.8846 30.9153 34.2245V34.8046C30.9153 36.1817 32.0072 37.3022 33.3492 37.3022H37.1226C38.4646 37.3022 39.5565 36.1817 39.5565 34.8046V34.2245C40.7247 33.8845 41.8474 33.4069 42.9106 32.7973L43.3084 33.2055C43.7667 33.6787 44.3785 33.9392 45.0309 33.9392C45.6835 33.9392 46.2953 33.6786 46.7509 33.2083L49.4228 30.4695C49.881 29.9993 50.1333 29.3724 50.1333 28.7041C50.1333 28.0357 49.881 27.4089 49.4228 26.9388L49.0222 26.5277C49.6137 25.4387 50.079 24.2868 50.4122 23.0863H50.9757C52.3178 23.0863 53.4097 21.9658 53.4097 20.5887V16.7133C53.4098 15.3362 52.318 14.2158 50.9758 14.2158ZM37.385 34.8045C37.385 34.9505 37.2649 35.0737 37.1227 35.0737H33.3493C33.2071 35.0737 33.087 34.9505 33.087 34.8045V33.358V26.3338C33.087 25.8678 32.8045 25.4511 32.3788 25.2891C29.4611 24.1787 27.5008 21.2972 27.5008 18.1189C27.5008 15.6001 28.7231 13.2389 30.7698 11.8032C30.8617 11.7388 30.9429 11.6863 31.0139 11.6431C31.01 11.788 31 11.9257 30.9947 11.9976C30.9865 12.1106 30.98 12.1999 30.98 12.2885V17.5471C30.98 19.9608 32.8179 21.9765 35.164 22.1362C35.2119 22.1394 35.2599 22.1394 35.3078 22.1362C37.6522 21.9767 39.4887 19.9609 39.4887 17.5471V12.2885C39.4887 12.2003 39.4823 12.1116 39.4743 11.9992C39.4691 11.927 39.4591 11.7885 39.4553 11.643C39.5261 11.686 39.6069 11.7385 39.6984 11.8028C41.7456 13.2388 42.9679 15.5999 42.9679 18.1188C42.9679 21.2968 41.0087 24.1784 38.0927 25.2891C37.6672 25.4512 37.3848 25.8678 37.3848 26.3337V33.3578V34.8045H37.385ZM51.2382 20.5887C51.2382 20.7321 51.1156 20.8579 50.9758 20.8579H49.5693C49.062 20.8579 48.6223 21.2183 48.5103 21.7261C48.1665 23.2852 47.5709 24.7594 46.7402 26.1079C46.4689 26.5483 46.5313 27.1227 46.8902 27.4911L47.8875 28.5145C47.9522 28.5809 47.9619 28.6618 47.9619 28.7041C47.9619 28.7463 47.9522 28.8273 47.8879 28.8933L45.2137 31.6344C45.1525 31.6975 45.0805 31.7107 45.031 31.7107C44.9816 31.7107 44.9097 31.6975 44.8463 31.632L43.849 30.6086C43.4895 30.2398 42.9292 30.1763 42.5001 30.4553C41.5732 31.0579 40.5867 31.5361 39.5566 31.8896V27.0748C42.9251 25.4662 45.1397 21.9606 45.1397 18.1187C45.1397 14.8634 43.5637 11.8145 40.9241 9.96305C40.5198 9.67949 39.2901 8.81678 38.2146 9.45197C37.1586 10.0759 37.2638 11.5385 37.3087 12.1631C37.3126 12.2174 37.3164 12.263 37.3172 12.2885V17.5471C37.3172 18.7667 36.4089 19.7892 35.236 19.9067C34.0615 19.7891 33.1517 18.7666 33.1517 17.5471L33.1516 12.2965C33.1526 12.263 33.1565 12.2174 33.1604 12.1629C33.2057 11.5386 33.3118 10.0768 32.2566 9.45253C31.1815 8.81622 29.95 9.67927 29.5449 9.96305C26.9052 11.8146 25.3292 14.8635 25.3292 18.1188C25.3292 21.9613 27.545 25.4671 30.9154 27.0753V31.8897C29.8851 31.5363 28.8974 31.0578 27.9678 30.4548C27.7891 30.339 27.588 30.2825 27.3879 30.2825C27.1074 30.2825 26.8293 30.3938 26.6198 30.6088L25.6204 31.6344C25.5593 31.6976 25.4873 31.7108 25.4378 31.7108C25.3883 31.7108 25.3165 31.6976 25.2531 31.6322L22.5847 28.8939C22.5199 28.8274 22.5102 28.7464 22.5102 28.7042C22.5102 28.6619 22.5199 28.581 22.5847 28.5145L23.5819 27.4911C23.9408 27.1227 24.0032 26.5483 23.7319 26.1079C22.8969 24.7523 22.3015 23.2787 21.9622 21.728C21.851 21.2193 21.4108 20.8578 20.9028 20.8578H19.4932C19.3535 20.8578 19.2309 20.732 19.2309 20.5886V16.7132C19.2309 16.5673 19.351 16.444 19.4932 16.444H20.9028C21.4108 16.444 21.8509 16.0825 21.9622 15.5739C22.3015 14.0231 22.8968 12.5494 23.7319 11.1939C24.0032 10.7536 23.9408 10.1791 23.5819 9.81074L22.5846 8.78736C22.5199 8.72096 22.5102 8.64007 22.5102 8.59773C22.5102 8.55539 22.5199 8.4745 22.5847 8.40798L25.2554 5.66731C25.3165 5.60424 25.3884 5.59099 25.4379 5.59099C25.4874 5.59099 25.5593 5.60424 25.6227 5.66965L26.6199 6.69303C26.9791 7.06149 27.5389 7.12533 27.9679 6.84701C29.2873 5.99109 30.725 5.37884 32.2406 5.02754C32.7357 4.91278 33.0872 4.46142 33.0872 3.94076V2.49756C33.0872 2.3516 33.2073 2.22837 33.3495 2.22837H37.1229C37.2651 2.22837 37.3852 2.3516 37.3852 2.49756V3.94099C37.3852 4.46176 37.7367 4.913 38.2317 5.02776C39.7488 5.3794 41.1848 5.99131 42.5003 6.84667C42.9295 7.12567 43.4898 7.06216 43.8493 6.69336L44.8487 5.66764C44.9099 5.60458 44.9818 5.59132 45.0312 5.59132C45.0808 5.59132 45.1526 5.60458 45.2165 5.67043L47.8878 8.40832C47.9525 8.47472 47.9621 8.55561 47.9621 8.59795C47.9621 8.64029 47.9525 8.72118 47.8876 8.7877L46.8905 9.81108C46.5315 10.1794 46.4692 10.7539 46.7404 11.1942C47.571 12.5427 48.1667 14.0169 48.5106 15.5761C48.6225 16.0838 49.0622 16.4443 49.5695 16.4443H50.9761C51.1183 16.4443 51.2384 16.5675 51.2384 16.7135V20.5887H51.2382Z" fill="white"/>
<path d="M41.5624 49.0599C41.1384 49.495 41.1384 50.2005 41.5624 50.6357C41.7745 50.8532 42.0523 50.9621 42.3302 50.9621C42.608 50.9621 42.8859 50.8532 43.098 50.6357L43.101 50.6326C43.525 50.1975 43.5235 49.4935 43.0994 49.0584C42.6753 48.6233 41.9864 48.625 41.5624 49.0599Z" fill="white"/>
<path d="M46.5925 38.2671L37.9723 42.8097C37.2416 42.0332 36.2177 41.5487 35.0851 41.5487H29.1788C28.8481 41.5487 28.7673 41.5217 28.7619 41.5198C28.714 41.494 28.5626 41.348 28.4411 41.2308L28.3873 41.1789C23.6089 36.5632 19.5725 36.8556 14.9823 38.7145C14.2396 39.0154 14.2253 39.016 13.4795 39.0487L12.1439 39.0497C11.7635 37.8719 10.6807 37.0195 9.40699 37.0195H5.06425C3.47607 37.0195 2.18408 38.3469 2.18408 39.9783V51.6738C2.18408 53.3034 3.47607 54.6293 5.06425 54.6293H9.40699C10.6806 54.6293 11.7633 53.7779 12.1438 52.6015H14.5869C14.8026 52.6015 14.8026 52.6015 15.0535 52.6741C15.1447 52.7005 15.2557 52.7326 15.399 52.7721L26.6363 55.8571C27.1317 55.9944 27.586 56.1295 28.0254 56.2601C29.4651 56.6882 30.6754 57.048 31.9367 57.048C33.3624 57.048 34.8531 56.5883 36.8137 55.2475C36.8231 55.2411 36.8326 55.2344 36.8419 55.2276L38.9872 53.6578C39.4755 53.3005 39.5891 52.6048 39.2409 52.1037C38.8926 51.6026 38.2145 51.4861 37.7265 51.8435L35.5954 53.4028C32.7502 55.3447 31.542 54.9857 28.6297 54.1197C28.1811 53.9864 27.7172 53.8484 27.2003 53.7051L15.9621 50.6201C15.8305 50.5838 15.7273 50.5539 15.6426 50.5294C15.2326 50.4108 15.0793 50.3734 14.587 50.3734H12.2903V41.279H13.4637C13.4794 41.279 13.4948 41.2786 13.5104 41.278L13.5723 41.2753C14.4825 41.2354 14.7371 41.2099 15.7797 40.7875C19.8112 39.155 22.923 38.961 26.9003 42.8031L26.954 42.8549C27.6337 43.5103 28.0252 43.7773 29.1789 43.7773H35.0852C35.7784 43.7773 36.3828 44.1722 36.6979 44.7539C36.7013 44.7603 36.7052 44.7665 36.7087 44.7729C36.8494 45.04 36.9295 45.3455 36.9295 45.67C36.9295 46.7118 36.1023 47.5594 35.0853 47.5594H25.5133C24.9137 47.5594 24.4275 48.0582 24.4275 48.6736C24.4275 49.289 24.9137 49.7878 25.5133 49.7878H35.0853C37.2997 49.7878 39.1011 47.9406 39.1011 45.67C39.1011 45.3613 39.0668 45.061 39.0038 44.7716L47.5846 40.2497C48.3968 39.8218 49.5073 39.8677 50.0587 40.7858C50.5464 41.5951 50.2781 42.6707 49.435 43.2875L45.6709 46.0384C45.1824 46.3954 45.0684 47.0911 45.4163 47.5924C45.6281 47.8976 45.9623 48.0603 46.3017 48.0603C46.5196 48.0603 46.7396 47.9932 46.9305 47.8537L50.6951 45.1024C52.483 43.7945 53.0033 41.4348 51.9064 39.6153C50.8278 37.819 48.5435 37.2394 46.5925 38.2671ZM10.1186 51.6738C10.1186 52.068 9.79277 52.4009 9.40699 52.4009H5.06425C4.6801 52.4009 4.35567 52.0679 4.35567 51.6738V39.9784C4.35567 39.5757 4.67359 39.248 5.06425 39.248H9.40699C9.79277 39.248 10.1186 39.5824 10.1186 39.9784V51.6738Z" fill="white"/>
</svg>
