<svg width="64" height="45" viewBox="0 0 64 45" fill="none" xmlns="http://www.w3.org/2000/svg">
<path d="M52.3055 32.8038C51.5303 32.8042 50.7628 32.962 50.047 33.2682C49.3312 33.5744 48.6812 34.0231 48.1344 34.5883C47.5872 35.1301 47.1493 35.7776 46.8457 36.4938C46.5421 37.2099 46.3787 37.9806 46.365 38.7617C46.3513 39.5428 46.4875 40.3191 46.7658 41.046C47.044 41.7729 47.459 42.4363 47.9868 42.9981L48.0975 43.112C49.2094 44.2397 50.7071 44.8736 52.2686 44.8775C53.8252 44.8775 55.318 44.2415 56.4186 43.1093C57.5193 41.9772 58.1377 40.4417 58.1377 38.8407C58.1377 37.2396 57.5193 35.7041 56.4186 34.572C55.318 33.4399 53.8252 32.8038 52.2686 32.8038H52.3055ZM52.3055 42.1818C51.879 42.193 51.4544 42.1177 51.0561 41.9602C50.6579 41.8026 50.2937 41.5659 49.9843 41.2636C49.675 40.9613 49.4266 40.5993 49.2532 40.1982C49.0799 39.7971 48.9851 39.3648 48.9742 38.9261C48.9633 38.4873 49.0365 38.0506 49.1897 37.641C49.3428 37.2313 49.5729 36.8567 49.8669 36.5385C50.1608 36.2203 50.5128 35.9648 50.9027 35.7865C51.2926 35.6083 51.7128 35.5107 52.1394 35.4995H52.3055C53.167 35.4995 53.9932 35.8515 54.6024 36.4781C55.2116 37.1047 55.5538 37.9545 55.5538 38.8407C55.5538 39.7268 55.2116 40.5766 54.6024 41.2032C53.9932 41.8298 53.167 42.1818 52.3055 42.1818ZM53.8189 12.7191C53.5763 12.4941 53.2597 12.372 52.933 12.3774H46.2519C45.9093 12.3774 45.5807 12.5174 45.3384 12.7666C45.0961 13.0158 44.96 13.3538 44.96 13.7062V24.6788C44.9575 24.8549 44.9892 25.0298 45.053 25.1932C45.1168 25.3566 45.2116 25.5053 45.3318 25.6308C45.452 25.7562 45.5953 25.8558 45.7532 25.9237C45.9112 25.9917 46.0807 26.0267 46.2519 26.0267H56.8642C57.0354 26.0267 57.2049 25.9917 57.3629 25.9237C57.5208 25.8558 57.6641 25.7562 57.7843 25.6308C57.9045 25.5053 57.9993 25.3566 58.0631 25.1932C58.1269 25.0298 58.1586 24.8549 58.1561 24.6788V17.3511C58.1588 17.1648 58.1223 16.9801 58.049 16.8097C57.9757 16.6393 57.8674 16.4872 57.7316 16.364L53.8189 12.7191ZM55.5538 23.35H47.5623V15.0351H52.4347L55.5538 17.9396V23.35ZM20.4872 32.8418C18.9245 32.8395 17.4246 33.4744 16.3161 34.6073C15.2173 35.7125 14.5903 37.2214 14.573 38.802C14.5557 40.3827 15.1495 41.9057 16.2238 43.0361C16.2238 43.0361 16.2238 43.0361 16.3161 43.131C16.9965 43.8362 17.8356 44.3577 18.7589 44.6494C19.6822 44.9411 20.6613 44.9939 21.6092 44.8031C22.5571 44.6122 23.4446 44.1837 24.1929 43.5555C24.9412 42.9274 25.5272 42.1189 25.8989 41.2019C26.2707 40.285 26.4166 39.2878 26.3239 38.2989C26.2311 37.3099 25.9025 36.3599 25.3672 35.5329C24.8319 34.7059 24.1064 34.0276 23.2551 33.5582C22.4038 33.0888 21.4531 32.8427 20.4872 32.8418ZM20.4872 42.2198C19.6184 42.2449 18.7754 41.9141 18.1437 41.2999C17.512 40.6858 17.1434 39.8387 17.119 38.9451C17.0945 38.0514 17.4162 37.1843 18.0132 36.5346C18.6103 35.8849 19.4338 35.5057 20.3026 35.4805H20.4503C21.2719 35.5442 22.0397 35.9248 22.6 36.5462C23.1603 37.1675 23.4716 37.9837 23.4716 38.8312C23.4716 39.6786 23.1603 40.4948 22.6 41.1162C22.0397 41.7375 21.2719 42.1181 20.4503 42.1818L20.4872 42.2198ZM11.7944 34.4554H9.22897V30.9055C9.23141 30.7294 9.1998 30.5545 9.13597 30.3911C9.07214 30.2277 8.97737 30.0789 8.85716 29.9535C8.73695 29.8281 8.5937 29.7285 8.43574 29.6606C8.27778 29.5926 8.10826 29.5576 7.93704 29.5576C7.5895 29.5576 7.2562 29.6996 7.01046 29.9524C6.76471 30.2052 6.62665 30.548 6.62665 30.9055V35.8033C6.62664 35.9794 6.66066 36.1538 6.72673 36.3162C6.79281 36.4787 6.88962 36.626 7.01155 36.7497C7.13348 36.8733 7.27809 36.9708 7.43697 37.0365C7.59585 37.1021 7.76583 37.1346 7.93704 37.1321H11.7944C12.1387 37.1322 12.4693 36.9928 12.7145 36.7441C12.9597 36.4954 13.0999 36.1574 13.1047 35.8033C13.1 35.4473 12.9604 35.1073 12.7157 34.8556C12.471 34.6039 12.1404 34.4603 11.7944 34.4554ZM18.457 27.1467C18.4571 26.7925 18.3215 26.4525 18.0798 26.2003C17.838 25.948 17.5094 25.8038 17.1651 25.7989H1.29284C0.974445 25.8379 0.68103 25.9957 0.468148 26.2424C0.255266 26.489 0.137695 26.8074 0.137695 27.1372C0.137695 27.467 0.255266 27.7854 0.468148 28.032C0.68103 28.2787 0.974445 28.4365 1.29284 28.4756H17.1097C17.4524 28.4756 17.781 28.3356 18.0233 28.0863C18.2655 27.8371 18.4017 27.4991 18.4017 27.1467H18.457ZM3.95052 22.3059L19.7489 22.4008C19.9202 22.4033 20.0901 22.3708 20.249 22.3051C20.4079 22.2395 20.5525 22.142 20.6744 22.0183C20.7964 21.8947 20.8932 21.7473 20.9593 21.5849C21.0253 21.4224 21.0593 21.248 21.0593 21.0719C21.0642 20.8983 21.0355 20.7254 20.9749 20.5634C20.9143 20.4013 20.8229 20.2532 20.7061 20.1278C20.5893 20.0024 20.4494 19.9021 20.2946 19.8328C20.1398 19.7635 19.9731 19.7265 19.8043 19.7241L4.00589 19.6292C3.82201 19.6066 3.63556 19.6244 3.45885 19.6813C3.28214 19.7383 3.11917 19.8331 2.98068 19.9596C2.8422 20.086 2.73134 20.2412 2.65543 20.415C2.57951 20.5887 2.54026 20.777 2.54026 20.9675C2.54026 21.158 2.57951 21.3463 2.65543 21.52C2.73134 21.6938 2.8422 21.849 2.98068 21.9754C3.11917 22.1019 3.28214 22.1967 3.45885 22.2537C3.63556 22.3106 3.82201 22.3284 4.00589 22.3059H3.95052ZM6.6082 16.2311H22.4066C22.725 16.192 23.0184 16.0342 23.2313 15.7876C23.4442 15.5409 23.5618 15.2225 23.5618 14.8927C23.5618 14.5629 23.4442 14.2445 23.2313 13.9979C23.0184 13.7512 22.725 13.5934 22.4066 13.5544H6.6082C6.26066 13.5544 5.92736 13.6964 5.68162 13.9491C5.43587 14.2019 5.29781 14.5447 5.29781 14.9022C5.2978 15.0783 5.33182 15.2527 5.39789 15.4152C5.46397 15.5776 5.56078 15.725 5.68271 15.8486C5.80464 15.9723 5.94925 16.0698 6.10813 16.1354C6.26701 16.2011 6.43699 16.2336 6.6082 16.2311ZM63.4899 14.3327L54.1511 6.47344C53.9218 6.26746 53.6249 6.15888 53.3206 6.1697H42.45V1.34784C42.45 0.993638 42.3145 0.653654 42.0727 0.401424C41.8309 0.149193 41.5024 0.0049888 41.158 0H7.93704C7.5895 0 7.2562 0.142004 7.01046 0.394774C6.76471 0.647544 6.62665 0.990373 6.62665 1.34784V11.1434C6.62665 11.5009 6.76471 11.8437 7.01046 12.0965C7.2562 12.3493 7.5895 12.4913 7.93704 12.4913C8.10826 12.4913 8.27778 12.4563 8.43574 12.3883C8.5937 12.3204 8.73695 12.2208 8.85716 12.0954C8.97737 11.97 9.07214 11.8212 9.13597 11.6578C9.1998 11.4944 9.23141 11.3195 9.22897 11.1434V2.6767H39.7738V34.4554H29.0877C28.7693 34.4945 28.4759 34.6523 28.263 34.8989C28.0502 35.1456 27.9326 35.464 27.9326 35.7938C27.9326 36.1236 28.0502 36.442 28.263 36.6886C28.4759 36.9353 28.7693 37.0931 29.0877 37.1321H44.9969C45.3153 37.0931 45.6087 36.9353 45.8216 36.6886C46.0345 36.442 46.152 36.1236 46.152 35.7938C46.152 35.464 46.0345 35.1456 45.8216 34.8989C45.6087 34.6523 45.3153 34.4945 44.9969 34.4554H42.45V8.84641H52.9515L61.4413 16.0982V34.4364H60.0755C59.7547 34.4622 59.4542 34.6086 59.2315 34.8476C59.0088 35.0866 58.8794 35.4016 58.868 35.7324C58.8566 36.0633 58.9639 36.3869 59.1696 36.6415C59.3753 36.8962 59.665 37.0641 59.9833 37.1131H62.5671C62.9066 37.1132 63.2324 36.9758 63.4742 36.7307C63.7159 36.4855 63.8542 36.1524 63.859 35.8033L63.9698 15.4907C63.9692 15.2856 63.926 15.083 63.8433 14.8964C63.7606 14.7099 63.6401 14.5436 63.4899 14.4086V14.3327Z" fill="white"/>
</svg>
